<?xml version="1.0" encoding="UTF-8"?>
<!DOCTYPE svg PUBLIC "-//W3C//DTD SVG 1.1//EN" "http://www.w3.org/Graphics/SVG/1.1/DTD/svg11.dtd">
<svg xmlns="http://www.w3.org/2000/svg" version="1.1" width="2480px" height="3508px" style="shape-rendering:geometricPrecision; text-rendering:geometricPrecision; image-rendering:optimizeQuality; fill-rule:evenodd; clip-rule:evenodd" xmlns:xlink="http://www.w3.org/1999/xlink">
<g><path style="opacity:0.705" fill="#9E2b40" d="M 1188.5,1201.5 C 1198.72,1202.56 1202.55,1208.22 1200,1218.5C 1198.94,1224.55 1197.77,1230.55 1196.5,1236.5C 1201.18,1236.38 1205.35,1237.71 1209,1240.5C 1210.26,1244.91 1209.43,1248.74 1206.5,1252C 1202.21,1253.15 1197.88,1253.99 1193.5,1254.5C 1192.32,1267.67 1190.49,1280.67 1188,1293.5C 1185.14,1299.33 1180.64,1301 1174.5,1298.5C 1172.28,1296.11 1171.28,1293.27 1171.5,1290C 1173.06,1282.62 1173.89,1275.12 1174,1267.5C 1174.76,1262.55 1176.26,1257.88 1178.5,1253.5C 1173.5,1253.17 1170.83,1250.5 1170.5,1245.5C 1171.33,1239.66 1174.67,1236.66 1180.5,1236.5C 1180.71,1227.43 1181.54,1218.43 1183,1209.5C 1184.12,1206.24 1185.95,1203.58 1188.5,1201.5 Z"/></g>
<g><path style="opacity:0.702" fill="#9E2b40" d="M 1138.5,1205.5 C 1152.13,1205.77 1160.46,1212.77 1163.5,1226.5C 1161.91,1233.1 1157.91,1235.43 1151.5,1233.5C 1149.5,1230.5 1147.17,1227.84 1144.5,1225.5C 1143.16,1227 1141.49,1227.67 1139.5,1227.5C 1139.43,1232.4 1136.93,1234.73 1132,1234.5C 1127.2,1234.47 1124.7,1231.97 1124.5,1227C 1124.67,1225.5 1124.83,1224 1125,1222.5C 1129.05,1216.37 1133.55,1210.7 1138.5,1205.5 Z"/></g>
<g><path style="opacity:0.731" fill="#9E2b40" d="M 1166.5,1274.5 C 1164.9,1275.29 1164.23,1276.62 1164.5,1278.5C 1164.59,1279.5 1164.25,1280.33 1163.5,1281C 1158.35,1285.48 1152.69,1289.15 1146.5,1292C 1141.02,1292.57 1135.69,1293.74 1130.5,1295.5C 1125.56,1294.05 1120.56,1292.88 1115.5,1292C 1108.31,1287.61 1104.64,1281.11 1104.5,1272.5C 1105.94,1261.11 1110.94,1251.61 1119.5,1244C 1123.76,1242.07 1127.76,1239.73 1131.5,1237C 1138.51,1235.07 1145.51,1235.07 1152.5,1237C 1154.38,1239.38 1156.72,1241.22 1159.5,1242.5C 1164.77,1249.96 1164.77,1257.46 1159.5,1265C 1163.35,1267.07 1165.68,1270.23 1166.5,1274.5 Z M 1135.5,1252.5 C 1138.83,1252.5 1142.17,1252.5 1145.5,1252.5C 1145.34,1254.83 1144.67,1256.99 1143.5,1259C 1140.2,1260.6 1136.87,1262.1 1133.5,1263.5C 1131.42,1262.93 1129.76,1261.76 1128.5,1260C 1130.95,1257.48 1133.29,1254.98 1135.5,1252.5 Z"/></g>
<g><path style="opacity:0.687" fill="#9E2b40" d="M 961.5,1257.5 C 961.508,1254.46 961.841,1251.46 962.5,1248.5C 965.262,1243.64 969.262,1242.47 974.5,1245C 976.049,1246.21 977.215,1247.71 978,1249.5C 979.55,1262.91 981.216,1276.24 983,1289.5C 984.993,1292.66 986.493,1295.99 987.5,1299.5C 988.978,1299.76 990.311,1299.43 991.5,1298.5C 993.085,1296.21 994.585,1293.87 996,1291.5C 997.763,1285.35 998.929,1279.02 999.5,1272.5C 1000.81,1270.26 1001.48,1267.59 1001.5,1264.5C 1001.33,1261.83 1001.17,1259.17 1001,1256.5C 1000.62,1255.94 1000.12,1255.61 999.5,1255.5C 999.334,1250.49 999.501,1245.49 1000,1240.5C 1003.26,1236.67 1007.43,1235.51 1012.5,1237C 1015.35,1239.52 1016.85,1242.69 1017,1246.5C 1019.96,1243.01 1023.63,1242.01 1028,1243.5C 1033.68,1248.18 1038.68,1253.52 1043,1259.5C 1047.07,1254.62 1050.4,1249.29 1053,1243.5C 1058.33,1237.25 1064,1236.91 1070,1242.5C 1070.17,1243.5 1070.33,1244.5 1070.5,1245.5C 1066.31,1254.94 1061.65,1264.11 1056.5,1273C 1059.98,1278.14 1063.81,1282.98 1068,1287.5C 1070.52,1297.97 1066.36,1301.8 1055.5,1299C 1052.67,1295.5 1049.5,1292.33 1046,1289.5C 1043.21,1294.23 1040.05,1298.73 1036.5,1303C 1033.4,1305.83 1030.07,1306.5 1026.5,1305C 1025.67,1304.17 1024.83,1303.33 1024,1302.5C 1023.33,1299.17 1023.33,1295.83 1024,1292.5C 1027.14,1286.38 1030.64,1280.54 1034.5,1275C 1028.82,1268.54 1022.98,1262.04 1017,1255.5C 1016.33,1263.17 1016.33,1270.83 1017,1278.5C 1017.95,1283.9 1018.95,1289.23 1020,1294.5C 1020.67,1298.17 1020.67,1301.83 1020,1305.5C 1018.14,1307.21 1015.97,1308.21 1013.5,1308.5C 1010.93,1307.34 1008.27,1306.67 1005.5,1306.5C 1005.65,1307.55 1005.48,1308.55 1005,1309.5C 1003.15,1311.05 1001.65,1312.88 1000.5,1315C 997.009,1316.61 993.509,1318.11 990,1319.5C 986.617,1318.32 983.283,1316.99 980,1315.5C 977.689,1312.52 975.022,1309.86 972,1307.5C 966.382,1291.43 962.882,1274.76 961.5,1257.5 Z"/></g>
<g><path style="opacity:0.005" fill="#fe0000" d="M 1213.5,1242.5 C 1214.65,1244.95 1214.31,1247.29 1212.5,1249.5C 1212.3,1247.05 1212.63,1244.72 1213.5,1242.5 Z"/></g>
<g><path style="opacity:0.004" fill="#fe0000" d="M 962.5,1248.5 C 961.841,1251.46 961.508,1254.46 961.5,1257.5C 960.848,1256.55 960.514,1255.38 960.5,1254C 960.393,1251.78 961.06,1249.95 962.5,1248.5 Z"/></g>
<g><path style="opacity:0.715" fill="#9E2b40" d="M 1212.5,1249.5 C 1214.31,1247.29 1214.65,1244.95 1213.5,1242.5C 1213.3,1236.53 1216.14,1233.86 1222,1234.5C 1227.59,1233.59 1230.09,1235.93 1229.5,1241.5C 1235.18,1241.33 1240.84,1241.5 1246.5,1242C 1252.06,1245.42 1254.06,1250.25 1252.5,1256.5C 1255.51,1257.13 1258.35,1258.13 1261,1259.5C 1270.32,1253.69 1280.48,1250.36 1291.5,1249.5C 1298.76,1249.25 1304.26,1252.25 1308,1258.5C 1309.03,1266.95 1305.86,1273.45 1298.5,1278C 1292.55,1280.93 1286.22,1282.43 1279.5,1282.5C 1274.2,1281.66 1268.87,1281.32 1263.5,1281.5C 1263.72,1285.06 1263.38,1288.56 1262.5,1292C 1263.35,1294.46 1265.01,1296.12 1267.5,1297C 1278.9,1299.73 1288.56,1297.06 1296.5,1289C 1307.07,1288.06 1310.74,1292.56 1307.5,1302.5C 1291.53,1316.69 1273.87,1319.19 1254.5,1310C 1251.33,1307.5 1248.5,1304.67 1246,1301.5C 1244.83,1291.95 1245.66,1282.62 1248.5,1273.5C 1247.89,1270.68 1246.89,1268.02 1245.5,1265.5C 1245.71,1264.91 1246.04,1264.41 1246.5,1264C 1242.62,1262.21 1238.95,1260.05 1235.5,1257.5C 1232.22,1258.05 1229.72,1259.72 1228,1262.5C 1226.29,1270.65 1225.29,1278.98 1225,1287.5C 1223.69,1290.4 1222.52,1293.4 1221.5,1296.5C 1216.43,1299.53 1211.93,1298.86 1208,1294.5C 1207.83,1292.67 1207.67,1290.83 1207.5,1289C 1208.69,1282.5 1209.86,1276 1211,1269.5C 1211.29,1262.8 1211.79,1256.13 1212.5,1249.5 Z"/></g>
<g><path style="opacity:0.715" fill="#9E2b40" d="M 911.5,1305.5 C 911.5,1300.83 911.5,1296.17 911.5,1291.5C 911.176,1287.45 911.509,1283.45 912.5,1279.5C 914.404,1275.74 915.571,1271.74 916,1267.5C 919.588,1264.38 922.921,1261.05 926,1257.5C 937.406,1251.85 947.073,1253.85 955,1263.5C 956.133,1273.99 952.966,1282.99 945.5,1290.5C 939.751,1296.21 933.418,1301.21 926.5,1305.5C 928.034,1308.38 930.367,1310.05 933.5,1310.5C 936.955,1308.03 940.621,1306.03 944.5,1304.5C 945.477,1296.01 950.144,1292.18 958.5,1293C 961.472,1294.14 963.139,1296.31 963.5,1299.5C 962.861,1303.7 961.694,1307.7 960,1311.5C 953.016,1320.07 944.182,1325.74 933.5,1328.5C 919.207,1327.38 911.873,1319.71 911.5,1305.5 Z M 936.5,1272.5 C 935.18,1274.82 933.514,1276.82 931.5,1278.5C 932.097,1275.57 933.764,1273.57 936.5,1272.5 Z"/></g>
<g><path style="opacity:0.008" fill="#9E2b40" d="M 999.5,1255.5 C 1000.12,1255.61 1000.62,1255.94 1001,1256.5C 1001.17,1259.17 1001.33,1261.83 1001.5,1264.5C 1001.48,1267.59 1000.81,1270.26 999.5,1272.5C 1000.83,1266.83 1000.83,1261.17 999.5,1255.5 Z"/></g>
<g><path style="opacity:0.563" fill="#9E2b40" d="M 892.5,1263.5 C 891.064,1263.25 889.564,1262.91 888,1262.5C 887.493,1264 887.993,1265.16 889.5,1266C 888.377,1267.04 887.044,1267.71 885.5,1268C 885.833,1268.33 886.167,1268.67 886.5,1269C 884.618,1269.2 882.952,1269.7 881.5,1270.5C 874.851,1266.5 873.851,1261.34 878.5,1255C 883.775,1252.94 888.275,1254.11 892,1258.5C 892.494,1260.13 892.66,1261.8 892.5,1263.5 Z"/></g>
<g><path style="opacity:0.599" fill="#9E2b40" d="M 1090.5,1274.5 C 1084.32,1273.71 1077.98,1273.05 1071.5,1272.5C 1069.61,1272.7 1068.11,1272.04 1067,1270.5C 1065.78,1265.76 1066.62,1261.6 1069.5,1258C 1077.44,1256.47 1085.44,1256.14 1093.5,1257C 1101.18,1258.34 1103.68,1262.84 1101,1270.5C 1098.39,1273.87 1094.89,1275.21 1090.5,1274.5 Z"/></g>
<g><path style="opacity:0.233" fill="#9E2b40" d="M 892.5,1263.5 C 890.676,1268.65 887.009,1270.98 881.5,1270.5C 882.952,1269.7 884.618,1269.2 886.5,1269C 886.167,1268.67 885.833,1268.33 885.5,1268C 887.044,1267.71 888.377,1267.04 889.5,1266C 887.993,1265.16 887.493,1264 888,1262.5C 889.564,1262.91 891.064,1263.25 892.5,1263.5 Z"/></g>
<g><path style="opacity:0.004" fill="#fe0000" d="M 1389.5,1271.5 C 1388.17,1274.5 1388.17,1277.5 1389.5,1280.5C 1387.97,1279.51 1387.31,1278.01 1387.5,1276C 1387.31,1273.99 1387.97,1272.49 1389.5,1271.5 Z"/></g>
<g><path style="opacity:0.004" fill="#fe0000" d="M 1071.5,1272.5 C 1077.98,1273.05 1084.32,1273.71 1090.5,1274.5C 1084.82,1274.67 1079.16,1274.5 1073.5,1274C 1072.58,1273.72 1071.92,1273.22 1071.5,1272.5 Z"/></g>
<g><path style="opacity:0.004" fill="#000000" d="M 1166.5,1274.5 C 1166.34,1276.15 1165.67,1277.49 1164.5,1278.5C 1164.23,1276.62 1164.9,1275.29 1166.5,1274.5 Z"/></g>
<g><path style="opacity:0.72" fill="#9E2b40" d="M 1389.5,1280.5 C 1388.17,1277.5 1388.17,1274.5 1389.5,1271.5C 1392.09,1268.51 1395.43,1267.34 1399.5,1268C 1402.72,1272.1 1406.39,1275.76 1410.5,1279C 1416.5,1279.33 1422.5,1279.67 1428.5,1280C 1436.48,1285.61 1436.48,1291.28 1428.5,1297C 1421.78,1297.79 1415.12,1297.63 1408.5,1296.5C 1407.68,1299.78 1407.18,1303.12 1407,1306.5C 1401.29,1315.26 1396.12,1324.26 1391.5,1333.5C 1392.32,1335.11 1393.65,1335.78 1395.5,1335.5C 1395.68,1338.32 1396.34,1340.99 1397.5,1343.5C 1396.94,1345.91 1396.1,1348.24 1395,1350.5C 1387.21,1353.1 1380.87,1351.1 1376,1344.5C 1375.76,1342.24 1375.26,1340.07 1374.5,1338C 1366.15,1337.83 1357.81,1337.33 1349.5,1336.5C 1342.86,1331.48 1340.02,1324.81 1341,1316.5C 1343.67,1311.83 1346.33,1307.17 1349,1302.5C 1355.55,1297.5 1362.39,1293 1369.5,1289C 1377.83,1288.67 1386.17,1288.33 1394.5,1288C 1392.17,1285.86 1390.51,1283.36 1389.5,1280.5 Z M 1379.5,1304.5 C 1381.92,1304.19 1384.26,1304.53 1386.5,1305.5C 1384.57,1308.94 1382.07,1311.94 1379,1314.5C 1378.52,1315.45 1378.35,1316.45 1378.5,1317.5C 1375.2,1318.33 1372.2,1319.83 1369.5,1322C 1366.17,1322.67 1362.83,1322.67 1359.5,1322C 1358.83,1321.33 1358.17,1320.67 1357.5,1320C 1360.22,1318.28 1362.22,1315.95 1363.5,1313C 1366.3,1311.37 1368.96,1309.54 1371.5,1307.5C 1374.45,1306.92 1377.11,1305.92 1379.5,1304.5 Z"/></g>
<g><path style="opacity:0.724" fill="#9E2b40" d="M 866.5,1290.5 C 869.85,1290.33 873.183,1290.5 876.5,1291C 877.191,1292.07 877.691,1293.23 878,1294.5C 880.133,1295.26 881.8,1296.59 883,1298.5C 888.246,1309.48 892.579,1320.82 896,1332.5C 897.218,1337.46 897.551,1342.46 897,1347.5C 894.689,1348.49 892.355,1349.49 890,1350.5C 888.893,1350.41 887.893,1350.08 887,1349.5C 880.79,1339.02 876.123,1328.02 873,1316.5C 871.369,1324.19 872.702,1331.19 877,1337.5C 877.331,1341.68 878.164,1345.68 879.5,1349.5C 878.788,1353.89 876.454,1357.23 872.5,1359.5C 867.634,1358.14 864.134,1355.14 862,1350.5C 858.615,1337.69 853.281,1325.69 846,1314.5C 843.705,1317.83 843.039,1321.5 844,1325.5C 846.392,1330.62 849.059,1335.62 852,1340.5C 853.564,1345.04 854.564,1349.71 855,1354.5C 857.697,1357.85 857.364,1361.18 854,1364.5C 850.371,1367.15 846.871,1366.82 843.5,1363.5C 842.147,1362.31 840.98,1360.98 840,1359.5C 838.197,1353.76 836.197,1348.09 834,1342.5C 827.352,1331.69 821.019,1320.69 815,1309.5C 813.722,1299.78 817.889,1295.95 827.5,1298C 829.543,1299.81 831.043,1301.98 832,1304.5C 838.901,1294.24 847.235,1292.91 857,1300.5C 859.696,1296.64 862.863,1293.31 866.5,1290.5 Z"/></g>
<g><path style="opacity:0.838" fill="#9E2b40" d="M 889.5,1279.5 C 897.88,1278.38 902.047,1282.05 902,1290.5C 905.716,1297.03 908.05,1304.03 909,1311.5C 912.064,1318.03 914.731,1324.7 917,1331.5C 918.682,1342.15 914.182,1346.32 903.5,1344C 902.958,1341.75 901.791,1339.91 900,1338.5C 899.053,1332.16 897.053,1326.16 894,1320.5C 891.973,1311.27 889.306,1302.27 886,1293.5C 884.744,1288.14 885.911,1283.48 889.5,1279.5 Z"/></g>
<g><path style="opacity:0.012" fill="#9E2b40" d="M 911.5,1291.5 C 911.5,1296.17 911.5,1300.83 911.5,1305.5C 910.195,1303.6 909.529,1301.27 909.5,1298.5C 909.529,1295.73 910.195,1293.4 911.5,1291.5 Z"/></g>
<g><path style="opacity:0.727" fill="#9E2b40" d="M 1604.5,1532.5 C 1602.9,1532.23 1601.57,1532.57 1600.5,1533.5C 1588.23,1535.06 1577.4,1531.72 1568,1523.5C 1565.57,1520.58 1564.4,1517.25 1564.5,1513.5C 1564.07,1510.99 1563.41,1508.66 1562.5,1506.5C 1565.61,1503.11 1565.11,1501.78 1561,1502.5C 1558.51,1502.17 1556.34,1501.17 1554.5,1499.5C 1553.21,1495.96 1553.21,1492.46 1554.5,1489C 1551.35,1489 1548.01,1488.83 1544.5,1488.5C 1543.87,1486.54 1543.2,1484.54 1542.5,1482.5C 1543.38,1479.79 1544.38,1477.12 1545.5,1474.5C 1553.41,1467.75 1561.74,1461.59 1570.5,1456C 1573.66,1453.85 1575.99,1451.02 1577.5,1447.5C 1576.5,1447.17 1575.5,1446.83 1574.5,1446.5C 1568.85,1447.19 1563.19,1447.69 1557.5,1448C 1550.26,1452.57 1543.26,1457.57 1536.5,1463C 1532.5,1463.67 1528.5,1463.67 1524.5,1463C 1521.11,1459.63 1520.61,1455.79 1523,1451.5C 1525.17,1450 1527,1448.17 1528.5,1446C 1533.95,1442.72 1539.28,1439.22 1544.5,1435.5C 1545.81,1432.59 1547.81,1430.25 1550.5,1428.5C 1547.55,1427.35 1544.55,1427.18 1541.5,1428C 1538.76,1429.92 1535.76,1431.08 1532.5,1431.5C 1531.84,1434.01 1530.5,1436.18 1528.5,1438C 1524.88,1441.12 1520.88,1443.62 1516.5,1445.5C 1507.59,1441.2 1506.26,1435.2 1512.5,1427.5C 1509.28,1428.11 1506.28,1429.27 1503.5,1431C 1497.14,1431.83 1490.81,1431.66 1484.5,1430.5C 1480.82,1427.98 1477.65,1424.98 1475,1421.5C 1474.67,1415.5 1474.33,1409.5 1474,1403.5C 1472.8,1406.16 1471.97,1409 1471.5,1412C 1468.56,1416.22 1464.56,1417.55 1459.5,1416C 1454.34,1411.36 1453.34,1406.03 1456.5,1400C 1433.96,1400.79 1424.46,1389.95 1428,1367.5C 1438.29,1346.76 1455.13,1336.93 1478.5,1338C 1484.65,1339.46 1489.81,1342.63 1494,1347.5C 1500.16,1339.31 1506.66,1331.48 1513.5,1324C 1521.08,1320.72 1525.74,1323.05 1527.5,1331C 1526.76,1332.78 1526.09,1334.62 1525.5,1336.5C 1524.31,1337.43 1522.98,1337.76 1521.5,1337.5C 1521.4,1342.26 1519.07,1345.26 1514.5,1346.5C 1508.75,1357.11 1501.75,1366.95 1493.5,1376C 1497.88,1374.31 1502.21,1372.31 1506.5,1370C 1513.83,1369.33 1521.17,1369.33 1528.5,1370C 1537.17,1377.2 1540,1386.36 1537,1397.5C 1534.21,1403.27 1531.04,1408.77 1527.5,1414C 1528.17,1414.67 1528.83,1414.67 1529.5,1414C 1534.93,1408.72 1540.59,1403.72 1546.5,1399C 1550.78,1397.41 1555.12,1397.41 1559.5,1399C 1562.13,1402.8 1562.13,1406.63 1559.5,1410.5C 1562.32,1412.92 1565.15,1415.26 1568,1417.5C 1568.5,1421.49 1568.67,1425.49 1568.5,1429.5C 1574.18,1429.33 1579.84,1429.5 1585.5,1430C 1594.49,1433.85 1597.66,1440.68 1595,1450.5C 1594.49,1455 1592.33,1458.5 1588.5,1461C 1592.67,1459.78 1597,1459.44 1601.5,1460C 1606.42,1467.04 1605.09,1472.7 1597.5,1477C 1602.68,1475.65 1608.01,1475.32 1613.5,1476C 1621.15,1477.53 1628.15,1480.53 1634.5,1485C 1640.25,1490.98 1642.09,1498.15 1640,1506.5C 1634.41,1514.44 1628.74,1514.44 1623,1506.5C 1622.29,1504.1 1622.46,1501.77 1623.5,1499.5C 1622.87,1497.74 1621.87,1496.24 1620.5,1495C 1616.57,1493.86 1612.57,1493.02 1608.5,1492.5C 1603.94,1493.51 1599.27,1494.34 1594.5,1495C 1589.61,1499.37 1584.78,1503.87 1580,1508.5C 1580.81,1511.82 1582.98,1514.16 1586.5,1515.5C 1592.4,1516.99 1598.4,1517.83 1604.5,1518C 1605.69,1520.12 1607.02,1522.12 1608.5,1524C 1607.06,1526.78 1605.72,1529.61 1604.5,1532.5 Z M 1468.5,1353.5 C 1474.89,1353.25 1479.56,1355.92 1482.5,1361.5C 1479.07,1366.94 1475.57,1372.27 1472,1377.5C 1467.65,1377.74 1463.81,1379.24 1460.5,1382C 1455.47,1382.83 1450.47,1382.66 1445.5,1381.5C 1443.88,1376.49 1444.54,1371.82 1447.5,1367.5C 1449.68,1365.48 1451.68,1363.32 1453.5,1361C 1458.1,1357.45 1463.1,1354.95 1468.5,1353.5 Z M 1514.5,1385.5 C 1516.2,1385.34 1517.87,1385.51 1519.5,1386C 1520.08,1386.89 1520.41,1387.89 1520.5,1389C 1519.86,1394.01 1518.03,1398.51 1515,1402.5C 1510.65,1406.36 1506.15,1410.02 1501.5,1413.5C 1497.89,1414.49 1494.23,1414.82 1490.5,1414.5C 1490.42,1407.98 1492.59,1402.32 1497,1397.5C 1500.52,1394.32 1504.02,1391.15 1507.5,1388C 1509.93,1387.1 1512.26,1386.26 1514.5,1385.5 Z M 1512.5,1427.5 C 1512.84,1425.77 1513.84,1425.27 1515.5,1426C 1514.76,1427.04 1513.76,1427.54 1512.5,1427.5 Z"/></g>
<g><path style="opacity:0.705" fill="#9E2b40" d="M 764.5,1345.5 C 770.208,1344.69 775.208,1346.19 779.5,1350C 783.228,1353.97 787.061,1357.81 791,1361.5C 791.483,1362.45 791.649,1363.45 791.5,1364.5C 794.263,1364.74 796.429,1366.08 798,1368.5C 800.222,1373.06 803.222,1377.06 807,1380.5C 807.856,1382.87 808.69,1385.2 809.5,1387.5C 812.737,1388.25 814.903,1390.25 816,1393.5C 817.432,1398.81 815.599,1402.31 810.5,1404C 804.898,1404.45 800.398,1402.28 797,1397.5C 791.174,1387.5 784.007,1378.5 775.5,1370.5C 774.571,1369.31 774.238,1367.98 774.5,1366.5C 772.61,1366.7 771.11,1366.04 770,1364.5C 769.667,1365.83 769.333,1367.17 769,1368.5C 769.053,1374.15 769.386,1379.81 770,1385.5C 774.341,1392.16 779.008,1398.49 784,1404.5C 786.329,1409.36 785.829,1413.86 782.5,1418C 780.527,1418.5 778.527,1418.66 776.5,1418.5C 776.235,1424.6 773.068,1427.93 767,1428.5C 762.788,1443.7 752.955,1449.2 737.5,1445C 733.138,1442.15 728.472,1439.82 723.5,1438C 712.683,1429.81 703.516,1419.98 696,1408.5C 693.18,1398.32 696.846,1394.32 707,1396.5C 711.102,1398.77 713.935,1402.1 715.5,1406.5C 722.99,1415.65 731.99,1422.99 742.5,1428.5C 744.743,1429.47 747.076,1429.81 749.5,1429.5C 748.979,1422.91 747.313,1416.58 744.5,1410.5C 738.645,1401.14 731.478,1392.8 723,1385.5C 718.938,1378.37 720.938,1373.7 729,1371.5C 732.628,1373 736.128,1374.5 739.5,1376C 733.968,1372.45 732.301,1367.61 734.5,1361.5C 741.033,1356.76 746.367,1357.76 750.5,1364.5C 753.634,1359.63 756.634,1354.63 759.5,1349.5C 761.054,1347.91 762.721,1346.57 764.5,1345.5 Z M 760.5,1402.5 C 763.962,1404.19 763.962,1405.19 760.5,1405.5C 760.5,1404.5 760.5,1403.5 760.5,1402.5 Z"/></g>
<g><path style="opacity:0.565" fill="#9E2b40" d="M 1614.5,1438.5 C 1620.19,1437.34 1624.19,1439.34 1626.5,1444.5C 1628.98,1452.36 1626.15,1456.36 1618,1456.5C 1615.83,1456.33 1613.67,1456.17 1611.5,1456C 1611,1455.5 1610.5,1455 1610,1454.5C 1609.17,1450.13 1609.34,1445.8 1610.5,1441.5C 1611.9,1440.48 1613.23,1439.48 1614.5,1438.5 Z"/></g>
<g><path style="opacity:0.004" fill="#fe0000" d="M 1562.5,1506.5 C 1563.41,1508.66 1564.07,1510.99 1564.5,1513.5C 1563.88,1513.39 1563.38,1513.06 1563,1512.5C 1562.5,1510.53 1562.34,1508.53 1562.5,1506.5 Z"/></g>
<g><path style="opacity:0.652" fill="#9E2b40" d="M 1643.5,1525.5 C 1643.5,1524.17 1642.83,1523.5 1641.5,1523.5C 1640.5,1522.83 1639.5,1522.17 1638.5,1521.5C 1636.33,1511.86 1640.33,1507.19 1650.5,1507.5C 1662.91,1508.53 1665.91,1514.53 1659.5,1525.5C 1654.22,1527.89 1648.88,1527.89 1643.5,1525.5 Z"/></g>
<g><path style="opacity:0.67" fill="#9E2b40" d="M 1638.5,1521.5 C 1639.58,1527.07 1637.92,1531.57 1633.5,1535C 1622.29,1541.49 1611.29,1548.16 1600.5,1555C 1592.85,1557.65 1588.18,1555.15 1586.5,1547.5C 1587.46,1545.52 1588.46,1543.52 1589.5,1541.5C 1592.6,1540.02 1595.6,1538.35 1598.5,1536.5C 1599.61,1535.73 1600.28,1534.73 1600.5,1533.5C 1602.1,1533.77 1603.43,1533.43 1604.5,1532.5C 1608.06,1530.02 1611.73,1527.69 1615.5,1525.5C 1617.05,1524.55 1618.71,1524.21 1620.5,1524.5C 1623.27,1518.62 1627.94,1516.45 1634.5,1518C 1635.71,1519.38 1637.04,1520.54 1638.5,1521.5 Z"/></g>
<g><path style="opacity:0.004" fill="#000000" d="M 1641.5,1523.5 C 1642.83,1523.5 1643.5,1524.17 1643.5,1525.5C 1642.5,1525.17 1641.83,1524.5 1641.5,1523.5 Z"/></g>
<g><path style="opacity:0.718" fill="#9E2b40" d="M 661.5,1550.5 C 659.194,1550.99 656.861,1551.33 654.5,1551.5C 649.092,1550.72 643.759,1549.88 638.5,1549C 642.764,1554.25 646.597,1559.75 650,1565.5C 650.498,1568.48 650.665,1571.48 650.5,1574.5C 650.721,1577.07 651.388,1579.4 652.5,1581.5C 651.523,1585.71 650.023,1589.71 648,1593.5C 640.602,1598.28 632.435,1599.78 623.5,1598C 621.235,1596.88 618.901,1596.05 616.5,1595.5C 618.243,1600.01 619.743,1604.68 621,1609.5C 622.634,1617.71 621.134,1625.21 616.5,1632C 626.986,1636.34 637.319,1641.17 647.5,1646.5C 651.772,1651.49 651.106,1655.82 645.5,1659.5C 642.167,1660.83 638.833,1660.83 635.5,1659.5C 610.481,1647.48 585.647,1635.15 561,1622.5C 558.557,1618.09 557.057,1613.43 556.5,1608.5C 557.492,1602.07 558.992,1595.73 561,1589.5C 565.004,1585.14 569.504,1581.64 574.5,1579C 580.5,1578.67 586.5,1578.33 592.5,1578C 589.313,1574.47 586.479,1570.64 584,1566.5C 582.377,1562.01 581.544,1557.35 581.5,1552.5C 580.629,1549.94 580.629,1547.27 581.5,1544.5C 581.264,1541.17 582.097,1538.17 584,1535.5C 586.285,1534.18 588.452,1532.68 590.5,1531C 593.98,1530.7 597.313,1529.87 600.5,1528.5C 606.417,1529.71 612.083,1531.21 617.5,1533C 611.765,1529.11 607.765,1523.94 605.5,1517.5C 605.887,1512.28 608.721,1509.61 614,1509.5C 615.888,1509.8 617.722,1510.3 619.5,1511C 628.919,1522.88 640.919,1531.05 655.5,1535.5C 656.5,1535.17 657.5,1534.83 658.5,1534.5C 655.593,1526.36 650.927,1519.36 644.5,1513.5C 638.507,1509 632.673,1504.34 627,1499.5C 624.658,1492.58 627.158,1488.25 634.5,1486.5C 646.049,1491.95 657.049,1498.45 667.5,1506C 669.402,1507.3 671.402,1507.97 673.5,1508C 667.907,1504.41 662.907,1500.08 658.5,1495C 655.06,1493.4 651.726,1491.57 648.5,1489.5C 643.256,1486.1 638.422,1482.1 634,1477.5C 632.339,1473.42 633.172,1469.76 636.5,1466.5C 638.768,1465.46 641.101,1465.29 643.5,1466C 644.9,1467.44 646.567,1468.27 648.5,1468.5C 648.104,1465.96 648.771,1463.79 650.5,1462C 653.866,1460.33 657.199,1458.67 660.5,1457C 668.153,1455.33 672.486,1458.33 673.5,1466C 672.678,1471.88 669.345,1474.04 663.5,1472.5C 663.192,1474.92 663.526,1477.26 664.5,1479.5C 673.43,1485.59 681.93,1492.26 690,1499.5C 691.555,1508.53 688.055,1512.86 679.5,1512.5C 683.566,1516.35 684.233,1520.68 681.5,1525.5C 680.323,1527.97 678.323,1528.97 675.5,1528.5C 675.666,1533.18 675.499,1537.85 675,1542.5C 672.874,1549.12 668.374,1551.79 661.5,1550.5 Z M 596.5,1546.5 C 601.459,1546.07 606.126,1546.9 610.5,1549C 618.267,1553.89 625.267,1559.72 631.5,1566.5C 633.06,1570.24 634.393,1574.07 635.5,1578C 634.817,1581.91 632.483,1583.25 628.5,1582C 614.242,1576.75 603.742,1567.25 597,1553.5C 596.503,1551.19 596.337,1548.86 596.5,1546.5 Z M 573.5,1609.5 C 573.5,1608.17 573.5,1606.83 573.5,1605.5C 574.81,1598.86 578.81,1594.86 585.5,1593.5C 594.266,1595.59 600.266,1600.93 603.5,1609.5C 604.167,1611.83 604.833,1614.17 605.5,1616.5C 604.063,1618.58 603.396,1620.91 603.5,1623.5C 602.127,1623.66 600.793,1623.49 599.5,1623C 590.722,1618.78 582.055,1614.28 573.5,1609.5 Z"/></g>
<g><path style="opacity:0.004" fill="#fe0000" d="M 581.5,1544.5 C 580.629,1547.27 580.629,1549.94 581.5,1552.5C 578.941,1549.91 578.941,1547.24 581.5,1544.5 Z"/></g>
<g><path style="opacity:0.004" fill="#fe0000" d="M 661.5,1550.5 C 659.345,1552.53 657.012,1552.87 654.5,1551.5C 656.861,1551.33 659.194,1550.99 661.5,1550.5 Z"/></g>
<g><path style="opacity:0.732" fill="#9E2b40" d="M 1659.5,1530.5 C 1666.34,1528.74 1670.34,1531.24 1671.5,1538C 1670.29,1540.32 1669.46,1542.82 1669,1545.5C 1659.17,1551 1649.01,1555.83 1638.5,1560C 1640.02,1561.35 1641.35,1562.85 1642.5,1564.5C 1647.45,1565.58 1652.45,1566.41 1657.5,1567C 1660.66,1568.99 1663.99,1570.66 1667.5,1572C 1672.72,1576.16 1676.05,1581.49 1677.5,1588C 1676.75,1593.68 1674.08,1598.18 1669.5,1601.5C 1664.52,1603.84 1659.35,1605.51 1654,1606.5C 1650.4,1604.65 1646.57,1604.15 1642.5,1605C 1645.99,1608.66 1650.33,1610.49 1655.5,1610.5C 1661.02,1622.35 1657.02,1627.19 1643.5,1625C 1639.17,1622.67 1634.83,1620.33 1630.5,1618C 1628,1614.17 1624.83,1611 1621,1608.5C 1619.38,1604.31 1617.38,1600.31 1615,1596.5C 1612.82,1586.97 1615.32,1578.81 1622.5,1572C 1625.77,1571.56 1627.44,1569.73 1627.5,1566.5C 1624.08,1568.5 1620.74,1570.67 1617.5,1573C 1612.08,1575.54 1606.41,1576.04 1600.5,1574.5C 1598.32,1570.73 1597.99,1566.73 1599.5,1562.5C 1603.22,1560.95 1606.55,1558.79 1609.5,1556C 1626.36,1547.74 1643.03,1539.24 1659.5,1530.5 Z M 1646.5,1583.5 C 1651.05,1582.41 1655.05,1583.74 1658.5,1587.5C 1657.65,1588.99 1656.32,1589.66 1654.5,1589.5C 1652.22,1588.52 1649.89,1587.86 1647.5,1587.5C 1647.77,1585.9 1647.43,1584.57 1646.5,1583.5 Z"/></g>
<g><path style="opacity:0.004" fill="#fe0000" d="M 650.5,1574.5 C 652.163,1576.44 652.829,1578.77 652.5,1581.5C 651.388,1579.4 650.721,1577.07 650.5,1574.5 Z"/></g>
<g><path style="opacity:0.004" fill="#fe00ff" d="M 573.5,1605.5 C 573.5,1606.83 573.5,1608.17 573.5,1609.5C 570.978,1608.34 570.978,1607 573.5,1605.5 Z"/></g>
<g><path style="opacity:0.838" fill="#9E2b40" d="M 1069.5,1924.5 C 1068.17,1925.17 1067.17,1926.17 1066.5,1927.5C 1059.71,1931.67 1053.05,1931.34 1046.5,1926.5C 1045.95,1924.67 1045.11,1923 1044,1921.5C 1043.83,1910.82 1043.33,1900.15 1042.5,1889.5C 1038.71,1898.43 1035.04,1907.43 1031.5,1916.5C 1030.15,1917.17 1028.99,1917.17 1028,1916.5C 1027.6,1918.96 1026.44,1920.96 1024.5,1922.5C 1024.62,1923.11 1024.96,1923.44 1025.5,1923.5C 1019.82,1929.77 1012.65,1932.77 1004,1932.5C 993.928,1932.43 986.261,1928.1 981,1919.5C 975.34,1909.84 971.673,1899.51 970,1888.5C 968.802,1876.18 967.802,1863.85 967,1851.5C 962.23,1876.25 949.73,1896.42 929.5,1912C 924.56,1914.8 919.227,1916.46 913.5,1917C 912.833,1917.67 912.167,1918.33 911.5,1919C 889.433,1920.78 875.433,1910.95 869.5,1889.5C 868.833,1886.5 868.167,1883.5 867.5,1880.5C 866.667,1866.51 866.167,1852.51 866,1838.5C 859.669,1841.59 854.002,1840.59 849,1835.5C 846.424,1827.64 844.424,1819.64 843,1811.5C 841.927,1809.45 840.761,1807.45 839.5,1805.5C 836.407,1802.56 833.241,1799.89 830,1797.5C 816.582,1803.24 806.249,1812.58 799,1825.5C 797.205,1832.14 795.539,1838.81 794,1845.5C 793.333,1846.17 792.667,1846.83 792,1847.5C 791.333,1857.17 791.333,1866.83 792,1876.5C 795.086,1881.83 797.419,1887.5 799,1893.5C 801.401,1894.6 803.901,1894.77 806.5,1894C 815.764,1888.51 823.764,1881.51 830.5,1873C 833.733,1871.61 837.066,1870.45 840.5,1869.5C 843.006,1869.34 844.839,1870.34 846,1872.5C 854.263,1864.86 860.096,1866.53 863.5,1877.5C 863.034,1884.59 860.201,1890.59 855,1895.5C 847.593,1909.28 836.426,1918.45 821.5,1923C 809.365,1924.11 797.365,1923.44 785.5,1921C 771.045,1914.37 762.379,1903.21 759.5,1887.5C 758.667,1874.51 758.167,1861.51 758,1848.5C 752.802,1850.52 747.969,1853.18 743.5,1856.5C 743.167,1858 742.833,1859.5 742.5,1861C 747.219,1884.39 751.886,1907.73 756.5,1931C 755.569,1935.27 754.569,1939.44 753.5,1943.5C 749.768,1945.29 745.768,1946.29 741.5,1946.5C 737.232,1946.29 733.232,1945.29 729.5,1943.5C 724.888,1927.6 721.722,1911.27 720,1894.5C 718.393,1890.24 717.06,1885.9 716,1881.5C 715.502,1878.18 715.335,1874.85 715.5,1871.5C 706.678,1873.73 697.678,1875.4 688.5,1876.5C 684.128,1890.72 679.961,1905.05 676,1919.5C 675.46,1926.49 673.294,1932.82 669.5,1938.5C 668.29,1938.93 667.29,1939.6 666.5,1940.5C 660.114,1944.59 653.781,1944.25 647.5,1939.5C 647,1938.5 646.5,1937.5 646,1936.5C 644.526,1940.34 643.526,1944.34 643,1948.5C 638.964,1954.37 635.131,1960.37 631.5,1966.5C 631.167,1968.17 630.833,1969.83 630.5,1971.5C 632.359,1981.92 634.359,1992.26 636.5,2002.5C 639.553,2001.29 641.887,1999.12 643.5,1996C 648.519,1991.32 653.852,1986.98 659.5,1983C 662.085,1981.87 664.752,1981.04 667.5,1980.5C 670.401,1981.62 673.401,1982.62 676.5,1983.5C 682.717,1993.08 688.217,2003.08 693,2013.5C 692.488,2018.38 690.322,2022.54 686.5,2026C 683.5,2026.67 680.5,2026.67 677.5,2026C 672.649,2021.46 669.482,2015.96 668,2009.5C 667,2007.83 665.667,2006.5 664,2005.5C 660,2010.17 655.667,2014.5 651,2018.5C 647.698,2023.81 644.365,2029.15 641,2034.5C 635.65,2039.59 630.15,2039.75 624.5,2035C 622.86,2032.22 621.36,2029.38 620,2026.5C 616.902,2009.51 613.735,1992.51 610.5,1975.5C 599.46,1975.83 589.126,1973.49 579.5,1968.5C 579.167,1969.17 578.833,1969.83 578.5,1970.5C 579.934,1974.32 580.934,1978.32 581.5,1982.5C 584.043,1986.2 585.877,1990.2 587,1994.5C 587.108,2001.59 588.775,2008.25 592,2014.5C 593.546,2027.31 595.38,2039.98 597.5,2052.5C 597.647,2057.21 597.314,2061.88 596.5,2066.5C 596.815,2070.23 595.815,2073.56 593.5,2076.5C 588.5,2081.17 583.5,2085.83 578.5,2090.5C 574.541,2091.66 570.541,2091.83 566.5,2091C 564.081,2089.49 563.081,2087.32 563.5,2084.5C 563.5,2082.83 563.5,2081.17 563.5,2079.5C 563.247,2077.17 563.914,2075.17 565.5,2073.5C 568.07,2071.39 570.403,2069.05 572.5,2066.5C 573.689,2065.57 575.022,2065.24 576.5,2065.5C 576.666,2055.83 576.5,2046.16 576,2036.5C 571.424,2020.29 567.091,2003.95 563,1987.5C 561.826,1996.09 559.826,2004.42 557,2012.5C 556.689,2018.87 556.023,2025.21 555,2031.5C 552.944,2037.8 551.278,2044.13 550,2050.5C 549.88,2056.29 549.046,2061.95 547.5,2067.5C 552.683,2073.52 557.516,2079.86 562,2086.5C 562.681,2090.68 562.181,2094.68 560.5,2098.5C 551.775,2102.72 545.108,2100.72 540.5,2092.5C 537.481,2088.65 533.981,2085.31 530,2082.5C 527.825,2079.79 526.325,2076.79 525.5,2073.5C 528.674,2063.43 530.174,2053.1 530,2042.5C 531.647,2037.38 533.48,2032.38 535.5,2027.5C 536.331,2020.86 536.831,2014.19 537,2007.5C 540.085,1997.48 542.085,1987.14 543,1976.5C 543.29,1974.96 543.956,1973.62 545,1972.5C 545.667,1962.83 545.667,1953.17 545,1943.5C 529.983,1958.26 512.149,1963.59 491.5,1959.5C 494.849,1976.68 499.349,1993.68 505,2010.5C 511.874,2027.89 518.374,2045.39 524.5,2063C 517.981,2075.19 510.314,2086.69 501.5,2097.5C 493.739,2101.03 488.072,2099.03 484.5,2091.5C 486.528,2088.44 488.194,2085.1 489.5,2081.5C 491.958,2075.26 495.458,2069.6 500,2064.5C 500.667,2061.17 500.667,2057.83 500,2054.5C 496.461,2046.87 493.128,2039.2 490,2031.5C 489.216,2024.35 486.882,2017.68 483,2011.5C 482,2012.5 481,2013.5 480,2014.5C 477.685,2023.79 474.018,2032.46 469,2040.5C 468.667,2042.83 468.333,2045.17 468,2047.5C 465.536,2054.84 462.703,2062.01 459.5,2069C 463.439,2069.76 467.106,2071.26 470.5,2073.5C 474.167,2074.17 477.833,2074.83 481.5,2075.5C 482.242,2076.29 483.075,2076.95 484,2077.5C 484.498,2080.48 484.665,2083.48 484.5,2086.5C 483.89,2087.39 483.557,2088.39 483.5,2089.5C 479.304,2094.29 473.97,2095.79 467.5,2094C 459.703,2091.4 452.036,2088.4 444.5,2085C 442.641,2083.44 441.141,2081.61 440,2079.5C 438.971,2071.6 439.638,2063.93 442,2056.5C 448.995,2038.63 455.828,2020.63 462.5,2002.5C 457.093,1993.98 451.259,1985.64 445,1977.5C 441.983,1971.34 438.816,1965.34 435.5,1959.5C 425.075,1958.58 414.741,1959.42 404.5,1962C 403.833,1962.67 403.167,1963.33 402.5,1964C 403.667,1967.83 404.833,1971.67 406,1975.5C 412.106,1984.17 417.273,1993.34 421.5,2003C 418.805,2010.22 415.972,2017.39 413,2024.5C 412.667,2027.17 412.333,2029.83 412,2032.5C 408.594,2038.47 406.261,2044.8 405,2051.5C 401.85,2056.62 399.684,2062.12 398.5,2068C 400.439,2070.31 402.772,2072.14 405.5,2073.5C 409.702,2074.16 413.702,2075.33 417.5,2077C 422.803,2082.46 422.803,2087.96 417.5,2093.5C 414.828,2094.5 412.162,2095.5 409.5,2096.5C 399.578,2093.35 389.912,2089.51 380.5,2085C 376.716,2080.14 375.549,2074.64 377,2068.5C 383.919,2046.74 391.419,2025.24 399.5,2004C 386.84,1988.03 380.673,1969.86 381,1949.5C 379.393,1945.24 378.06,1940.9 377,1936.5C 376.934,1930.99 376.1,1925.66 374.5,1920.5C 375.239,1920.63 375.906,1920.46 376.5,1920C 375.846,1911.4 375.18,1902.9 374.5,1894.5C 374.461,1893.24 374.961,1892.24 376,1891.5C 376.889,1881.79 378.056,1872.12 379.5,1862.5C 376.723,1859.9 374.556,1856.9 373,1853.5C 372.157,1848.82 370.49,1844.49 368,1840.5C 367.333,1835.83 367.333,1831.17 368,1826.5C 369.667,1822.5 371.333,1818.5 373,1814.5C 381.216,1803.27 389.883,1792.27 399,1781.5C 400.85,1775.21 402.517,1768.88 404,1762.5C 407.014,1757.13 410.014,1751.8 413,1746.5C 419.209,1739.18 426.709,1733.35 435.5,1729C 440.731,1728.53 445.898,1727.7 451,1726.5C 455.557,1727.41 459.891,1728.75 464,1730.5C 465.298,1724.23 466.298,1717.89 467,1711.5C 472.927,1694.17 484.094,1681.34 500.5,1673C 506.339,1672.69 512.006,1671.85 517.5,1670.5C 534.792,1670.95 547.292,1678.95 555,1694.5C 557.53,1700.61 559.197,1706.95 560,1713.5C 560.887,1731.21 556.387,1747.38 546.5,1762C 547.025,1762.69 547.692,1763.19 548.5,1763.5C 554.353,1752.48 562.687,1743.98 573.5,1738C 597.101,1731.41 612.935,1739.57 621,1762.5C 621.218,1767.28 622.051,1771.95 623.5,1776.5C 621.911,1779.28 621.411,1782.28 622,1785.5C 624.148,1786.8 625.648,1788.64 626.5,1791C 631.082,1791.24 635.082,1792.91 638.5,1796C 642.714,1800.55 646.547,1805.38 650,1810.5C 650.114,1815.17 651.28,1819.51 653.5,1823.5C 654.497,1830.13 654.83,1836.8 654.5,1843.5C 657.964,1843.44 661.297,1844.11 664.5,1845.5C 665.772,1845.43 666.938,1845.1 668,1844.5C 669.477,1839.31 670.477,1833.98 671,1828.5C 674.684,1818.44 677.684,1808.11 680,1797.5C 680.667,1796.83 681.333,1796.17 682,1795.5C 685.538,1779.12 690.205,1763.12 696,1747.5C 703.667,1743.5 711.333,1743.5 719,1747.5C 719.815,1749.62 720.815,1751.62 722,1753.5C 726.935,1775.82 731.101,1798.49 734.5,1821.5C 736.743,1822.38 738.41,1821.55 739.5,1819C 743.34,1818.33 747.007,1817.16 750.5,1815.5C 754.254,1817.48 758.254,1818.48 762.5,1818.5C 762.15,1821.86 762.983,1824.86 765,1827.5C 771.264,1805.55 784.097,1788.38 803.5,1776C 811.294,1772.88 819.294,1770.55 827.5,1769C 831.5,1768.33 835.5,1768.33 839.5,1769C 845.082,1771.79 850.749,1774.46 856.5,1777C 866.857,1786.63 872.357,1798.46 873,1812.5C 877.882,1798.74 884.882,1786.08 894,1774.5C 905.611,1762.18 919.778,1756.68 936.5,1758C 941.346,1759.5 946.013,1761.5 950.5,1764C 955.142,1768.97 958.976,1774.47 962,1780.5C 963.634,1788.05 965.968,1795.39 969,1802.5C 970.129,1796.19 971.129,1789.85 972,1783.5C 973.193,1778.31 976.36,1775.14 981.5,1774C 995.444,1771.28 1001.78,1776.95 1000.5,1791C 996.466,1817.26 995.466,1843.76 997.5,1870.5C 998.228,1880.71 1000.73,1890.37 1005,1899.5C 1012.94,1886.61 1017.61,1872.61 1019,1857.5C 1019.41,1857.04 1019.91,1856.71 1020.5,1856.5C 1023.6,1832.26 1025.44,1807.93 1026,1783.5C 1026.37,1782.58 1026.87,1781.75 1027.5,1781C 1030.53,1780.87 1033.19,1779.87 1035.5,1778C 1037.83,1777.33 1040.17,1777.33 1042.5,1778C 1044.45,1779.83 1046.78,1781 1049.5,1781.5C 1051.99,1783.58 1052.99,1786.24 1052.5,1789.5C 1056.64,1787.93 1060.97,1787.43 1065.5,1788C 1070.62,1790.25 1075.62,1792.75 1080.5,1795.5C 1085.81,1805.45 1091.65,1815.12 1098,1824.5C 1103.79,1812.15 1109.79,1799.82 1116,1787.5C 1120.79,1779.02 1127.96,1775.19 1137.5,1776C 1138.42,1776.37 1139.25,1776.87 1140,1777.5C 1161.28,1757.59 1186.45,1748.76 1215.5,1751C 1224.2,1755.03 1231.03,1761.2 1236,1769.5C 1243.35,1792.77 1240.85,1814.77 1228.5,1835.5C 1215.49,1851.04 1199.83,1863.04 1181.5,1871.5C 1180.19,1876.22 1180.35,1880.89 1182,1885.5C 1182.67,1894.5 1182.67,1903.5 1182,1912.5C 1180.69,1916.62 1179.19,1920.62 1177.5,1924.5C 1174.75,1925.02 1172.42,1926.18 1170.5,1928C 1169,1928.17 1167.5,1928.33 1166,1928.5C 1162.19,1927.01 1158.19,1925.67 1154,1924.5C 1152.11,1920.27 1151.28,1915.77 1151.5,1911C 1153.06,1900.89 1153.73,1890.72 1153.5,1880.5C 1150.56,1879.59 1147.56,1878.93 1144.5,1878.5C 1144.05,1890.9 1144.71,1903.24 1146.5,1915.5C 1145.49,1919.4 1144.65,1923.4 1144,1927.5C 1136.77,1933.13 1128.94,1933.96 1120.5,1930C 1119.3,1929.1 1118.47,1927.93 1118,1926.5C 1117.67,1903.83 1117.33,1881.17 1117,1858.5C 1114.55,1865.22 1110.72,1871.06 1105.5,1876C 1098.38,1876.55 1091.54,1875.38 1085,1872.5C 1082.07,1864.6 1078.74,1856.93 1075,1849.5C 1073.4,1872.14 1072.4,1894.81 1072,1917.5C 1070.86,1919.71 1070.02,1922.04 1069.5,1924.5 Z M 514.5,1690.5 C 523.402,1691.2 530.569,1695.2 536,1702.5C 543.999,1724.71 538.833,1743.38 520.5,1758.5C 507.553,1765.46 497.053,1762.79 489,1750.5C 480.684,1728.69 485.517,1710.36 503.5,1695.5C 507.21,1693.56 510.876,1691.89 514.5,1690.5 Z M 445.5,1746.5 C 455.881,1747.13 462.714,1752.46 466,1762.5C 470.307,1784.44 463.14,1801.27 444.5,1813C 436.541,1815.15 429.875,1813.32 424.5,1807.5C 417.607,1793.02 418.107,1778.68 426,1764.5C 428.809,1760.39 431.975,1756.56 435.5,1753C 439.192,1751.15 442.526,1748.98 445.5,1746.5 Z M 585.5,1755.5 C 587.527,1755.34 589.527,1755.5 591.5,1756C 593.69,1758.02 596.023,1759.86 598.5,1761.5C 605.6,1778.75 602.266,1793.92 588.5,1807C 585.384,1808.6 582.051,1809.43 578.5,1809.5C 575.259,1809.55 572.259,1808.89 569.5,1807.5C 568.56,1804.29 567.06,1801.29 565,1798.5C 564.545,1795.22 563.711,1792.05 562.5,1789C 563.923,1780.38 567.089,1772.55 572,1765.5C 576.17,1761.46 580.67,1758.13 585.5,1755.5 Z M 498.5,1781.5 C 497.432,1782.43 496.099,1782.77 494.5,1782.5C 490.209,1783.18 487.543,1781.51 486.5,1777.5C 490.557,1778.63 494.557,1779.96 498.5,1781.5 Z M 1194.5,1783.5 C 1199.5,1783.23 1204.17,1784.23 1208.5,1786.5C 1211.42,1790.8 1212.09,1795.47 1210.5,1800.5C 1208.08,1810.93 1202.75,1819.59 1194.5,1826.5C 1190.14,1830.03 1185.64,1833.36 1181,1836.5C 1179.69,1824.19 1178.69,1811.86 1178,1799.5C 1175.72,1796.3 1174.89,1792.63 1175.5,1788.5C 1181.98,1786.93 1188.31,1785.26 1194.5,1783.5 Z M 927.5,1786.5 C 930.199,1788.83 932.699,1791.49 935,1794.5C 936.747,1800.86 938.414,1807.19 940,1813.5C 939.397,1835.51 933.397,1855.85 922,1874.5C 918.167,1879.67 913.667,1884.17 908.5,1888C 904.74,1889.18 901.907,1888.01 900,1884.5C 898.458,1881.2 897.125,1877.87 896,1874.5C 892.052,1844.56 899.385,1817.89 918,1794.5C 921.358,1791.97 924.524,1789.3 927.5,1786.5 Z M 534.5,1793.5 C 536.206,1815.99 537.206,1838.83 537.5,1862C 537.819,1866.31 535.819,1868.15 531.5,1867.5C 528.63,1859.56 522.964,1855.23 514.5,1854.5C 511.22,1854.56 508.22,1855.39 505.5,1857C 502.139,1860.64 499.472,1864.64 497.5,1869C 492.614,1871.94 487.281,1873.1 481.5,1872.5C 483.223,1849.11 484.889,1825.78 486.5,1802.5C 495.839,1802.67 505.173,1802.5 514.5,1802C 521.388,1799.46 528.054,1796.63 534.5,1793.5 Z M 610.5,1815.5 C 611.922,1812.57 613.588,1809.73 615.5,1807C 616.962,1807.06 618.295,1807.73 619.5,1809C 616.324,1811.02 613.324,1813.19 610.5,1815.5 Z M 402.5,1810.5 C 403.773,1811.08 403.773,1811.74 402.5,1812.5C 401.537,1812.03 401.537,1811.36 402.5,1810.5 Z M 1146.5,1815.5 C 1147.5,1815.5 1148.5,1815.5 1149.5,1815.5C 1150.39,1822.96 1151.05,1830.46 1151.5,1838C 1151.17,1842.5 1150.83,1847 1150.5,1851.5C 1149.19,1852.31 1148.02,1853.31 1147,1854.5C 1146.5,1841.5 1146.33,1828.5 1146.5,1815.5 Z M 702.5,1826.5 C 703.833,1826.5 705.167,1826.5 706.5,1826.5C 706.052,1831.04 706.719,1835.37 708.5,1839.5C 705.002,1841.88 701.336,1843.88 697.5,1845.5C 698.526,1841.32 700.026,1837.32 702,1833.5C 702.497,1831.19 702.663,1828.86 702.5,1826.5 Z M 556.5,1845.5 C 563.789,1846.83 571.122,1848.33 578.5,1850C 574.943,1853.53 570.609,1855.19 565.5,1855C 563.326,1857.35 560.659,1858.52 557.5,1858.5C 557.533,1854.13 557.2,1849.8 556.5,1845.5 Z M 590.5,1897.5 C 590.338,1899.53 590.505,1901.53 591,1903.5C 591.383,1904.06 591.883,1904.39 592.5,1904.5C 594.703,1909.76 598.703,1911.6 604.5,1910C 613.353,1903.31 621.02,1895.48 627.5,1886.5C 628.325,1885.61 629.325,1885.28 630.5,1885.5C 630.667,1897.84 630.5,1910.17 630,1922.5C 627.687,1928.77 625.354,1935.1 623,1941.5C 620.521,1945.64 617.687,1949.47 614.5,1953C 591.051,1956 573.884,1947.16 563,1926.5C 561.389,1911.17 559.889,1895.84 558.5,1880.5C 577.009,1874.82 594.342,1866.66 610.5,1856C 613.547,1852.43 617.214,1849.93 621.5,1848.5C 622.498,1852.81 622.998,1857.14 623,1861.5C 618.324,1866.68 613.824,1872.01 609.5,1877.5C 602.407,1883.59 596.074,1890.26 590.5,1897.5 Z M 402.5,1849.5 C 409.1,1854.1 415.1,1859.43 420.5,1865.5C 426.108,1868.78 431.442,1872.44 436.5,1876.5C 436.833,1877.17 437.167,1877.83 437.5,1878.5C 436.158,1882.39 435.325,1886.39 435,1890.5C 425.714,1877.88 415.047,1866.55 403,1856.5C 401.193,1854.26 401.026,1851.93 402.5,1849.5 Z M 442.5,1851.5 C 442.5,1852.17 442.5,1852.83 442.5,1853.5C 442.44,1854.04 442.107,1854.38 441.5,1854.5C 436.025,1852.1 436.359,1851.1 442.5,1851.5 Z M 648.5,1869.5 C 651.946,1871.11 655.279,1872.94 658.5,1875C 656.811,1883.5 654.311,1891.67 651,1899.5C 650.719,1889.44 649.886,1879.44 648.5,1869.5 Z M 396.5,1878.5 C 404.338,1886.17 411.671,1894.34 418.5,1903C 422.813,1905.29 427.48,1906.13 432.5,1905.5C 430.854,1916.05 430.187,1926.71 430.5,1937.5C 421.473,1938.56 412.473,1939.89 403.5,1941.5C 401.9,1941.45 400.4,1941.12 399,1940.5C 397.315,1933.5 395.982,1926.5 395,1919.5C 394.833,1915.5 394.667,1911.5 394.5,1907.5C 395.949,1898 396.615,1888.33 396.5,1878.5 Z M 460.5,1900.5 C 460.338,1902.53 460.505,1904.53 461,1906.5C 461.383,1907.06 461.883,1907.39 462.5,1907.5C 462.174,1911.88 462.508,1916.22 463.5,1920.5C 467.555,1941.27 471.388,1961.93 475,1982.5C 466.601,1971.1 458.601,1959.44 451,1947.5C 450.501,1942.18 450.334,1936.84 450.5,1931.5C 452.104,1930.71 452.771,1929.38 452.5,1927.5C 452.5,1918.83 452.5,1910.17 452.5,1901.5C 454.008,1899.82 455.008,1897.82 455.5,1895.5C 455.014,1892.24 456.014,1889.58 458.5,1887.5C 459.287,1891.84 459.954,1896.17 460.5,1900.5 Z M 528.5,1887.5 C 531.833,1887.5 535.167,1887.5 538.5,1887.5C 539.927,1897.23 540.927,1907.07 541.5,1917C 532.467,1930.06 520.133,1937.9 504.5,1940.5C 497.308,1940.15 491.475,1937.15 487,1931.5C 483.118,1919.64 481.285,1907.31 481.5,1894.5C 488.658,1894.6 495.325,1892.94 501.5,1889.5C 507.36,1894.17 514.027,1895.67 521.5,1894C 524.68,1892.65 527.013,1890.48 528.5,1887.5 Z M 489.5,2081.5 C 487.521,2082.81 485.855,2084.48 484.5,2086.5C 484.665,2083.48 484.498,2080.48 484,2077.5C 483.075,2076.95 482.242,2076.29 481.5,2075.5C 477.833,2074.83 474.167,2074.17 470.5,2073.5C 467.106,2071.26 463.439,2069.76 459.5,2069C 462.703,2062.01 465.536,2054.84 468,2047.5C 468.333,2045.17 468.667,2042.83 469,2040.5C 474.018,2032.46 477.685,2023.79 480,2014.5C 481,2013.5 482,2012.5 483,2011.5C 486.882,2017.68 489.216,2024.35 490,2031.5C 493.128,2039.2 496.461,2046.87 500,2054.5C 500.667,2057.83 500.667,2061.17 500,2064.5C 495.458,2069.6 491.958,2075.26 489.5,2081.5 Z"/></g>
<g><path style="opacity:0.908" fill="#9E2b40" d="M 1262.5,1754.5 C 1265.84,1754.89 1269.17,1755.39 1272.5,1756C 1274.46,1758.64 1276.96,1760.47 1280,1761.5C 1283.03,1768.76 1284.36,1776.43 1284,1784.5C 1289.44,1798.89 1292.61,1813.89 1293.5,1829.5C 1294.67,1833.93 1296,1838.27 1297.5,1842.5C 1299.53,1842.34 1301.53,1842.5 1303.5,1843C 1306.1,1844.75 1308.93,1845.92 1312,1846.5C 1312.32,1850.2 1312.82,1853.86 1313.5,1857.5C 1312.82,1861.14 1312.32,1864.8 1312,1868.5C 1308.53,1869.6 1305.03,1870.6 1301.5,1871.5C 1303.41,1879.59 1305.57,1887.59 1308,1895.5C 1308.91,1904.24 1308.58,1912.91 1307,1921.5C 1299.77,1926.44 1292.27,1926.77 1284.5,1922.5C 1283.92,1921 1283.08,1919.67 1282,1918.5C 1280.89,1908.81 1278.56,1899.48 1275,1890.5C 1274.61,1885.72 1273.78,1881.05 1272.5,1876.5C 1267.25,1877.71 1261.92,1878.54 1256.5,1879C 1256,1879.5 1255.5,1880 1255,1880.5C 1252.26,1890.87 1249.59,1901.2 1247,1911.5C 1244.83,1915.53 1243.49,1919.86 1243,1924.5C 1241.13,1926.51 1239.8,1928.84 1239,1931.5C 1238.51,1933.13 1238.34,1934.8 1238.5,1936.5C 1234.46,1937.3 1230.46,1938.3 1226.5,1939.5C 1222.54,1938.58 1218.54,1937.58 1214.5,1936.5C 1214.94,1933.64 1214.1,1931.3 1212,1929.5C 1211.33,1926.17 1211.33,1922.83 1212,1919.5C 1216.33,1908.26 1220.16,1896.93 1223.5,1885.5C 1217.49,1885.67 1211.49,1885.5 1205.5,1885C 1196.17,1876.33 1196.17,1867.67 1205.5,1859C 1214.47,1857.36 1223.47,1855.86 1232.5,1854.5C 1234,1846.18 1235.5,1837.84 1237,1829.5C 1238.09,1826.96 1238.76,1824.29 1239,1821.5C 1239.41,1821.04 1239.91,1820.71 1240.5,1820.5C 1244.16,1805.68 1246.66,1790.68 1248,1775.5C 1249.97,1772.15 1250.97,1768.49 1251,1764.5C 1252.2,1761.28 1254.03,1758.45 1256.5,1756C 1258.71,1755.81 1260.71,1755.31 1262.5,1754.5 Z M 1265.5,1843.5 C 1266.69,1843.87 1267.36,1844.7 1267.5,1846C 1266.46,1847.27 1265.3,1848.44 1264,1849.5C 1263.26,1847.13 1263.76,1845.13 1265.5,1843.5 Z"/></g>
<g><path style="opacity:0.856" fill="#9E2b40" d="M 1765.5,1953.5 C 1764.74,1963.67 1764.07,1974.01 1763.5,1984.5C 1763.51,1986.05 1763.84,1987.38 1764.5,1988.5C 1764.5,1988.83 1764.5,1989.17 1764.5,1989.5C 1763.96,1989.56 1763.62,1989.89 1763.5,1990.5C 1764.09,1993.64 1764.76,1996.64 1765.5,1999.5C 1766.18,2004.8 1766.68,2010.13 1767,2015.5C 1767.9,2018.08 1769.23,2020.42 1771,2022.5C 1776.07,2012.03 1781.4,2001.7 1787,1991.5C 1789.17,1988.67 1791.33,1985.83 1793.5,1983C 1794.45,1982.52 1795.45,1982.35 1796.5,1982.5C 1798.83,1981.17 1801.17,1981.17 1803.5,1982.5C 1804.87,1982.34 1806.21,1982.51 1807.5,1983C 1809.38,1985.25 1810.88,1987.75 1812,1990.5C 1813.08,2001.76 1817.08,2011.76 1824,2020.5C 1825.82,2032.18 1820.99,2036.84 1809.5,2034.5C 1805.38,2030.04 1802.04,2025.04 1799.5,2019.5C 1798.48,2018.15 1797.14,2017.48 1795.5,2017.5C 1795.22,2020.63 1794.38,2023.63 1793,2026.5C 1789.61,2032.89 1785.44,2038.72 1780.5,2044C 1775.39,2047.73 1769.72,2049.4 1763.5,2049C 1760.75,2047.88 1758.25,2046.38 1756,2044.5C 1753.06,2039.33 1750.73,2034 1749,2028.5C 1747.28,2017.51 1745.61,2006.51 1744,1995.5C 1743.7,1984.16 1743.7,1972.82 1744,1961.5C 1735.33,1969.72 1725.17,1975.38 1713.5,1978.5C 1705.53,1979.5 1697.53,1979.83 1689.5,1979.5C 1689.5,1982.83 1689.5,1986.17 1689.5,1989.5C 1689.43,1991.03 1690.09,1992.03 1691.5,1992.5C 1693.35,1999.04 1694.35,2005.7 1694.5,2012.5C 1694.23,2014.38 1694.9,2015.71 1696.5,2016.5C 1699.12,2025.23 1701.28,2034.23 1703,2043.5C 1703.21,2051.24 1704.04,2058.9 1705.5,2066.5C 1704.18,2070.99 1703.35,2075.66 1703,2080.5C 1698.85,2090.95 1693.85,2100.95 1688,2110.5C 1687.68,2114.14 1686.51,2117.47 1684.5,2120.5C 1681.25,2122.67 1677.75,2124.33 1674,2125.5C 1668.52,2123.9 1665.35,2120.23 1664.5,2114.5C 1668.38,2104.7 1672.54,2095.04 1677,2085.5C 1682.19,2079.28 1685.02,2072.11 1685.5,2064C 1684.26,2054.53 1682.6,2045.03 1680.5,2035.5C 1678.4,2029.91 1676.57,2024.24 1675,2018.5C 1673.39,2003.29 1671.05,1988.29 1668,1973.5C 1665.89,1970.51 1664.56,1967.17 1664,1963.5C 1662.51,1946.78 1660.51,1930.11 1658,1913.5C 1657.67,1913.17 1657.33,1912.83 1657,1912.5C 1651.12,1917.71 1644.95,1922.55 1638.5,1927C 1630.06,1930.81 1621.73,1934.81 1613.5,1939C 1607.54,1940.24 1601.87,1942.24 1596.5,1945C 1593.5,1945.5 1590.5,1946 1587.5,1946.5C 1583.39,1945.81 1579.39,1944.81 1575.5,1943.5C 1574.08,1939.1 1572.75,1934.6 1571.5,1930C 1572.32,1924.07 1574.32,1918.57 1577.5,1913.5C 1582.18,1910.5 1586.85,1907.5 1591.5,1904.5C 1590.06,1901.81 1588.56,1899.14 1587,1896.5C 1585.69,1890.07 1584.02,1883.74 1582,1877.5C 1573.02,1879 1564.18,1881 1555.5,1883.5C 1550.6,1896.77 1547.43,1910.44 1546,1924.5C 1544.14,1930.03 1541.81,1935.36 1539,1940.5C 1532.56,1943.46 1525.72,1944.3 1518.5,1943C 1514.95,1939.01 1512.95,1934.34 1512.5,1929C 1512.87,1924.75 1513.71,1920.58 1515,1916.5C 1517.27,1913.88 1517.94,1910.88 1517,1907.5C 1509.78,1913.34 1501.95,1914 1493.5,1909.5C 1486.5,1903.66 1480.33,1897 1475,1889.5C 1472.58,1883.25 1469.58,1877.25 1466,1871.5C 1465.67,1887.17 1465.33,1902.83 1465,1918.5C 1463.88,1919.95 1463.22,1921.62 1463,1923.5C 1461.51,1926.03 1459.68,1928.2 1457.5,1930C 1452.17,1930.67 1446.83,1930.67 1441.5,1930C 1439.67,1929.73 1438.17,1928.89 1437,1927.5C 1435.08,1923.79 1434.25,1919.79 1434.5,1915.5C 1436.69,1891.2 1437.02,1866.87 1435.5,1842.5C 1434.62,1843.76 1433.62,1844.93 1432.5,1846C 1427.4,1847.62 1422.4,1849.45 1417.5,1851.5C 1419.08,1857.35 1418.75,1863.01 1416.5,1868.5C 1416.69,1870.58 1417.19,1872.58 1418,1874.5C 1418.67,1886.83 1418.67,1899.17 1418,1911.5C 1416.48,1913.57 1415.64,1915.9 1415.5,1918.5C 1411.46,1919.58 1407.46,1920.58 1403.5,1921.5C 1399.65,1920.91 1395.98,1919.74 1392.5,1918C 1391.81,1916.93 1391.31,1915.77 1391,1914.5C 1388.31,1917.44 1385.47,1920.27 1382.5,1923C 1378.65,1924.22 1374.98,1925.88 1371.5,1928C 1366.73,1928.66 1362.06,1929.49 1357.5,1930.5C 1353.14,1929.8 1348.8,1928.97 1344.5,1928C 1341.27,1926.21 1337.93,1924.54 1334.5,1923C 1323.61,1911.54 1317.45,1898.04 1316,1882.5C 1315.33,1871.17 1315.33,1859.83 1316,1848.5C 1319.49,1821.61 1329.83,1797.61 1347,1776.5C 1362.55,1762.28 1380.05,1759.12 1399.5,1767C 1409.99,1774.81 1416.32,1785.15 1418.5,1798C 1416.13,1809.69 1409.13,1814.02 1397.5,1811C 1393.18,1809.02 1390.34,1805.85 1389,1801.5C 1386.49,1796.98 1382.82,1793.98 1378,1792.5C 1368.15,1798.68 1360.82,1807.01 1356,1817.5C 1354.42,1822.96 1352.08,1827.96 1349,1832.5C 1348.41,1836.71 1347.57,1840.88 1346.5,1845C 1346.67,1846.5 1346.83,1848 1347,1849.5C 1348.59,1847.97 1350.42,1846.81 1352.5,1846C 1360.51,1843.32 1368.51,1840.66 1376.5,1838C 1386.53,1832.11 1397.2,1827.94 1408.5,1825.5C 1412.27,1826.14 1415.94,1827.14 1419.5,1828.5C 1423.78,1827.39 1428.11,1827.23 1432.5,1828C 1434.05,1829.21 1435.22,1830.71 1436,1832.5C 1436.33,1825.17 1436.67,1817.83 1437,1810.5C 1437.85,1807.62 1439.35,1805.12 1441.5,1803C 1444.44,1801.88 1447.44,1801.05 1450.5,1800.5C 1454.39,1801.52 1458.22,1802.85 1462,1804.5C 1464.16,1811.15 1466.99,1817.49 1470.5,1823.5C 1479.34,1834.51 1487.17,1846.18 1494,1858.5C 1494.1,1855.3 1494.77,1852.3 1496,1849.5C 1496.33,1830.5 1496.67,1811.5 1497,1792.5C 1497.93,1787.85 1500.09,1784.01 1503.5,1781C 1509.5,1780.33 1515.5,1780.33 1521.5,1781C 1524.13,1785.63 1526.29,1790.46 1528,1795.5C 1526.88,1813.34 1526.21,1831.34 1526,1849.5C 1523.98,1852.14 1523.15,1855.14 1523.5,1858.5C 1526.45,1858.78 1529.28,1858.44 1532,1857.5C 1538.33,1832.16 1544.67,1806.83 1551,1781.5C 1552.95,1779.66 1553.95,1777.33 1554,1774.5C 1556.93,1772.3 1560.09,1770.47 1563.5,1769C 1565.5,1768.33 1567.5,1768.33 1569.5,1769C 1572.91,1770.47 1576.07,1772.3 1579,1774.5C 1579.73,1779.22 1581.4,1783.55 1584,1787.5C 1584.33,1790.83 1584.67,1794.17 1585,1797.5C 1587.48,1802.59 1590.14,1807.59 1593,1812.5C 1595.48,1822.38 1598.15,1832.05 1601,1841.5C 1602.06,1842.1 1603.23,1842.43 1604.5,1842.5C 1623.3,1837.47 1630.47,1844.47 1626,1863.5C 1623.39,1867.77 1619.55,1869.94 1614.5,1870C 1612.79,1870.78 1611.79,1872.11 1611.5,1874C 1613.16,1880.98 1615.83,1887.48 1619.5,1893.5C 1621.38,1890.4 1623.71,1887.74 1626.5,1885.5C 1633.71,1873.04 1639.87,1860.04 1645,1846.5C 1645.56,1841.88 1646.89,1837.54 1649,1833.5C 1649.33,1825.83 1649.67,1818.17 1650,1810.5C 1654.81,1802.82 1660.97,1801.32 1668.5,1806C 1671.17,1806.67 1673.83,1806.67 1676.5,1806C 1682.62,1803.47 1688.95,1801.47 1695.5,1800C 1698.19,1798.95 1700.52,1797.45 1702.5,1795.5C 1668.07,1799.57 1647.57,1784.57 1641,1750.5C 1639.25,1727.33 1647.09,1708.16 1664.5,1693C 1669.41,1691.07 1674.08,1688.74 1678.5,1686C 1708.94,1679.95 1729.1,1691.79 1739,1721.5C 1739.66,1726.93 1740.5,1732.27 1741.5,1737.5C 1740.15,1755.35 1733.49,1770.85 1721.5,1784C 1722.17,1784.67 1722.83,1784.67 1723.5,1784C 1731.47,1775.38 1739.63,1774.88 1748,1782.5C 1758.55,1804.86 1765.88,1828.19 1770,1852.5C 1770.17,1866.57 1771,1880.57 1772.5,1894.5C 1771.91,1904.85 1771.08,1915.18 1770,1925.5C 1766.96,1934.5 1765.46,1943.84 1765.5,1953.5 Z M 1691.5,1703.5 C 1697.05,1704.6 1702.39,1706.43 1707.5,1709C 1718.33,1719.94 1722.16,1733.1 1719,1748.5C 1715.2,1759.64 1708.37,1768.47 1698.5,1775C 1682.48,1778.74 1670.98,1773.24 1664,1758.5C 1662.88,1752.9 1661.71,1747.4 1660.5,1742C 1661.6,1737.16 1662.77,1732.32 1664,1727.5C 1666.05,1723.47 1668.05,1719.47 1670,1715.5C 1672.98,1713.51 1675.82,1711.34 1678.5,1709C 1682.88,1706.78 1687.22,1704.95 1691.5,1703.5 Z M 1719.5,1786.5 C 1717.63,1789.56 1714.96,1791.06 1711.5,1791C 1713.87,1788.92 1716.53,1787.42 1719.5,1786.5 Z M 1702.5,1795.5 C 1703.53,1794.15 1704.86,1793.65 1706.5,1794C 1705.44,1795.19 1704.1,1795.69 1702.5,1795.5 Z M 1714.5,1813.5 C 1715.24,1813.37 1715.91,1813.54 1716.5,1814C 1705.28,1835.96 1690.78,1855.46 1673,1872.5C 1671.7,1860.87 1670.53,1849.21 1669.5,1837.5C 1669.46,1832.96 1670.13,1828.63 1671.5,1824.5C 1677.51,1824.67 1683.51,1824.5 1689.5,1824C 1695.7,1821.98 1701.87,1819.82 1708,1817.5C 1710.36,1816.25 1712.53,1814.92 1714.5,1813.5 Z M 1682.5,1932.5 C 1682.34,1930.85 1681.67,1929.51 1680.5,1928.5C 1680.27,1921.79 1679.6,1915.12 1678.5,1908.5C 1678.7,1906.05 1678.37,1903.72 1677.5,1901.5C 1676.53,1899.93 1676.36,1898.27 1677,1896.5C 1700.11,1876.74 1719.11,1853.74 1734,1827.5C 1735.06,1822.69 1736.73,1818.02 1739,1813.5C 1742.13,1824.14 1745.13,1834.81 1748,1845.5C 1749.36,1860.74 1750.86,1875.9 1752.5,1891C 1752.09,1897.06 1750.92,1902.89 1749,1908.5C 1748.67,1914.17 1748.33,1919.83 1748,1925.5C 1738.31,1941.2 1724.81,1952.03 1707.5,1958C 1700.14,1958.64 1692.81,1958.47 1685.5,1957.5C 1684.09,1949.22 1683.09,1940.89 1682.5,1932.5 Z M 1567.5,1838.5 C 1569.02,1838.51 1570.18,1839.18 1571,1840.5C 1571.1,1843.44 1571.93,1846.1 1573.5,1848.5C 1570.63,1849.21 1567.8,1849.87 1565,1850.5C 1565.87,1846.62 1566.7,1842.62 1567.5,1838.5 Z M 1383.5,1866.5 C 1384.57,1867.25 1384.74,1868.25 1384,1869.5C 1378.39,1882.57 1369.72,1893.24 1358,1901.5C 1352.19,1898.02 1348.52,1893.02 1347,1886.5C 1345.67,1880.87 1345,1875.21 1345,1869.5C 1349.02,1872.33 1353.52,1873.99 1358.5,1874.5C 1362.72,1873.39 1367.05,1872.39 1371.5,1871.5C 1375.59,1869.66 1379.59,1868 1383.5,1866.5 Z M 1651.5,1882.5 C 1652.5,1883.17 1653.5,1883.83 1654.5,1884.5C 1654.66,1886.2 1654.49,1887.87 1654,1889.5C 1651.27,1891.41 1648.43,1893.08 1645.5,1894.5C 1647.07,1890.27 1649.07,1886.27 1651.5,1882.5 Z M 1521.5,1884.5 C 1523.62,1886.09 1523.95,1888.09 1522.5,1890.5C 1521.53,1888.6 1521.2,1886.6 1521.5,1884.5 Z"/></g>
<g><path style="opacity:0.016" fill="#9E2b40" d="M 494.5,1782.5 C 496.099,1782.77 497.432,1782.43 498.5,1781.5C 500.06,1781.52 501.56,1781.85 503,1782.5C 503.95,1781.98 504.784,1781.31 505.5,1780.5C 507.776,1781.21 510.109,1781.71 512.5,1782C 506.39,1783.66 500.39,1783.82 494.5,1782.5 Z"/></g>
<g><path style="opacity:0.004" fill="#000000" d="M 609.5,1815.5 C 609.737,1816.79 609.404,1817.79 608.5,1818.5C 608.5,1817.83 608.167,1817.5 607.5,1817.5C 607.833,1816.5 608.5,1815.83 609.5,1815.5 Z"/></g>
<g><path style="opacity:0.004" fill="#000000" d="M 442.5,1851.5 C 445.167,1852.17 445.167,1852.83 442.5,1853.5C 442.5,1852.83 442.5,1852.17 442.5,1851.5 Z"/></g>
<g><path style="opacity:0.004" fill="#fe0000" d="M 1654.5,1884.5 C 1653.5,1883.83 1652.5,1883.17 1651.5,1882.5C 1654.08,1877.28 1655.08,1877.94 1654.5,1884.5 Z"/></g>
<g><path style="opacity:0.008" fill="#9E2b40" d="M 374.5,1894.5 C 375.18,1902.9 375.846,1911.4 376.5,1920C 375.906,1920.46 375.239,1920.63 374.5,1920.5C 374.5,1911.83 374.5,1903.17 374.5,1894.5 Z"/></g>
<g><path style="opacity:0.005" fill="#f71115" d="M 455.5,1895.5 C 455.008,1897.82 454.008,1899.82 452.5,1901.5C 452.087,1898.68 453.087,1896.68 455.5,1895.5 Z"/></g>
<g><path style="opacity:0.004" fill="#fe0000" d="M 590.5,1897.5 C 591.239,1897.37 591.906,1897.54 592.5,1898C 591.395,1900.12 591.395,1902.29 592.5,1904.5C 591.883,1904.39 591.383,1904.06 591,1903.5C 590.505,1901.53 590.338,1899.53 590.5,1897.5 Z"/></g>
<g><path style="opacity:0.004" fill="#fe0000" d="M 1677.5,1901.5 C 1678.37,1903.72 1678.7,1906.05 1678.5,1908.5C 1677.62,1906.86 1676.95,1905.03 1676.5,1903C 1676.57,1902.24 1676.9,1901.74 1677.5,1901.5 Z"/></g>
<g><path style="opacity:0.008" fill="#9E2b40" d="M 460.5,1900.5 C 461.612,1902.6 462.279,1904.93 462.5,1907.5C 461.883,1907.39 461.383,1907.06 461,1906.5C 460.505,1904.53 460.338,1902.53 460.5,1900.5 Z"/></g>
<g><path style="opacity:0.018" fill="#9E2b40" d="M 1031.5,1916.5 C 1029.85,1919.15 1027.85,1921.49 1025.5,1923.5C 1024.96,1923.44 1024.62,1923.11 1024.5,1922.5C 1026.44,1920.96 1027.6,1918.96 1028,1916.5C 1028.99,1917.17 1030.15,1917.17 1031.5,1916.5 Z"/></g>
<g><path style="opacity:0.004" fill="#000000" d="M 1069.5,1924.5 C 1069.5,1926.5 1068.5,1927.5 1066.5,1927.5C 1067.17,1926.17 1068.17,1925.17 1069.5,1924.5 Z"/></g>
<g><path style="opacity:0.004" fill="#000000" d="M 452.5,1927.5 C 452.771,1929.38 452.104,1930.71 450.5,1931.5C 450.66,1929.85 451.326,1928.51 452.5,1927.5 Z"/></g>
<g><path style="opacity:0.004" fill="#000000" d="M 1680.5,1928.5 C 1681.67,1929.51 1682.34,1930.85 1682.5,1932.5C 1680.9,1931.71 1680.23,1930.38 1680.5,1928.5 Z"/></g>
<g><path style="opacity:0.004" fill="#000000" d="M 669.5,1938.5 C 669.179,1940.05 668.179,1940.71 666.5,1940.5C 667.29,1939.6 668.29,1938.93 669.5,1938.5 Z"/></g>
<g><path style="opacity:0.004" fill="#fa0000" d="M 1765.5,1953.5 C 1765.69,1965.19 1765.36,1976.86 1764.5,1988.5C 1763.84,1987.38 1763.51,1986.05 1763.5,1984.5C 1764.07,1974.01 1764.74,1963.67 1765.5,1953.5 Z"/></g>
<g><path style="opacity:0.004" fill="#fe0000" d="M 1803.5,1982.5 C 1801.17,1981.17 1798.83,1981.17 1796.5,1982.5C 1797.13,1981.05 1798.3,1980.39 1800,1980.5C 1801.7,1980.39 1802.87,1981.05 1803.5,1982.5 Z"/></g>
<g><path style="opacity:0.004" fill="#000000" d="M 1689.5,1989.5 C 1690.91,1989.97 1691.57,1990.97 1691.5,1992.5C 1690.09,1992.03 1689.43,1991.03 1689.5,1989.5 Z"/></g>
<g><path style="opacity:0.004" fill="#f50000" d="M 1764.5,1989.5 C 1765.41,1992.73 1765.75,1996.06 1765.5,1999.5C 1764.76,1996.64 1764.09,1993.64 1763.5,1990.5C 1763.62,1989.89 1763.96,1989.56 1764.5,1989.5 Z"/></g>
<g><path style="opacity:0.004" fill="#000000" d="M 1694.5,2012.5 C 1695.67,2013.51 1696.34,2014.85 1696.5,2016.5C 1694.9,2015.71 1694.23,2014.38 1694.5,2012.5 Z"/></g>
<g><path style="opacity:0.004" fill="#fe0000" d="M 597.5,2052.5 C 598.162,2054.3 598.495,2056.3 598.5,2058.5C 598.713,2061.53 598.047,2064.19 596.5,2066.5C 597.314,2061.88 597.647,2057.21 597.5,2052.5 Z"/></g>
<g><path style="opacity:0.004" fill="#fe0000" d="M 563.5,2079.5 C 563.5,2081.17 563.5,2082.83 563.5,2084.5C 560.833,2082.83 560.833,2081.17 563.5,2079.5 Z"/></g>
<g><path style="opacity:0.02" fill="#e00626" d="M 489.5,2081.5 C 488.194,2085.1 486.528,2088.44 484.5,2091.5C 484.672,2090.51 484.338,2089.84 483.5,2089.5C 483.557,2088.39 483.89,2087.39 484.5,2086.5C 485.855,2084.48 487.521,2082.81 489.5,2081.5 Z"/></g>
<g><path style="opacity:0.71" fill="#9E2b40" d="M 725.5,2118.5 C 723.973,2118.43 722.973,2119.09 722.5,2120.5C 714.818,2121.03 707.485,2122.86 700.5,2126C 696.899,2129.14 692.899,2131.64 688.5,2133.5C 685.029,2136.79 682.195,2140.46 680,2144.5C 679.182,2147.23 679.348,2149.89 680.5,2152.5C 688.422,2154.46 696.255,2156.46 704,2158.5C 704.667,2161.83 704.667,2165.17 704,2168.5C 702.59,2169.79 701.09,2170.95 699.5,2172C 691.266,2173.05 683.266,2172.38 675.5,2170C 661.769,2161.97 658.269,2150.8 665,2136.5C 672.247,2123.29 683.08,2114.46 697.5,2110C 699.156,2108.17 701.156,2106.84 703.5,2106C 715.943,2102.82 728.277,2102.82 740.5,2106C 743.717,2109.22 747.217,2112.05 751,2114.5C 751.146,2118.07 751.98,2121.4 753.5,2124.5C 752.251,2129.9 750.751,2135.23 749,2140.5C 746.5,2142.67 744,2144.83 741.5,2147C 737.931,2147.68 734.598,2147.18 731.5,2145.5C 730.755,2141.9 730.922,2138.23 732,2134.5C 733.702,2131.62 735.202,2128.62 736.5,2125.5C 733.175,2122.62 729.508,2120.28 725.5,2118.5 Z"/></g>
<g><path style="opacity:0.726" fill="#9E2b40" d="M 1553.5,2210.5 C 1553.33,2212.86 1552.99,2215.19 1552.5,2217.5C 1548.05,2222.63 1543.38,2222.63 1538.5,2217.5C 1538.46,2225.04 1534.62,2228.71 1527,2228.5C 1523.35,2228.89 1520.18,2227.89 1517.5,2225.5C 1513.51,2221.18 1510.84,2216.18 1509.5,2210.5C 1505.07,2204.23 1500.07,2198.4 1494.5,2193C 1489.63,2193.87 1486.63,2196.87 1485.5,2202C 1491.44,2209.37 1497.27,2216.87 1503,2224.5C 1506.81,2231.62 1509.64,2239.12 1511.5,2247C 1506.81,2255.04 1501.31,2255.54 1495,2248.5C 1491.04,2238.59 1485.54,2229.59 1478.5,2221.5C 1474.97,2219.16 1471.14,2217.49 1467,2216.5C 1466.1,2210.3 1464.26,2204.47 1461.5,2199C 1462.38,2197.2 1463.05,2195.37 1463.5,2193.5C 1466.07,2192.51 1468.74,2191.67 1471.5,2191C 1476.69,2178.48 1485.86,2173.64 1499,2176.5C 1499.1,2173.55 1499.93,2170.88 1501.5,2168.5C 1496.41,2161.31 1491.57,2153.98 1487,2146.5C 1485.71,2141.24 1487.55,2137.57 1492.5,2135.5C 1492.37,2136.24 1492.54,2136.91 1493,2137.5C 1494.78,2136.46 1496.61,2136.46 1498.5,2137.5C 1503.02,2141.86 1507.02,2146.69 1510.5,2152C 1512.77,2150.3 1515.44,2149.14 1518.5,2148.5C 1520.5,2147.17 1522.5,2147.17 1524.5,2148.5C 1525.69,2148.03 1526.36,2147.03 1526.5,2145.5C 1523.82,2128.37 1530.15,2115.87 1545.5,2108C 1559.31,2104.81 1563.98,2109.81 1559.5,2123C 1549.37,2123.29 1543.37,2128.45 1541.5,2138.5C 1542.14,2143.12 1544.31,2146.78 1548,2149.5C 1554.26,2145.05 1558.43,2139.05 1560.5,2131.5C 1567.57,2121.08 1576.9,2118.58 1588.5,2124C 1603.98,2137.05 1605.48,2151.55 1593,2167.5C 1589.07,2170.55 1585.24,2173.71 1581.5,2177C 1578.75,2178.75 1575.75,2179.75 1572.5,2180C 1568.76,2182.73 1564.76,2185.07 1560.5,2187C 1551.99,2187.2 1548.82,2183.03 1551,2174.5C 1551.47,2173.07 1552.3,2171.9 1553.5,2171C 1562.69,2166.78 1571.69,2162.28 1580.5,2157.5C 1581.72,2153.95 1583.05,2150.45 1584.5,2147C 1583.14,2145.07 1582.31,2142.91 1582,2140.5C 1579.86,2139.23 1577.69,2139.23 1575.5,2140.5C 1572.31,2146.89 1568.48,2152.89 1564,2158.5C 1551.25,2169.69 1539.92,2168.35 1530,2154.5C 1528.84,2156.29 1528.17,2158.29 1528,2160.5C 1525.36,2162.46 1523.53,2164.96 1522.5,2168C 1526.5,2173.15 1529.84,2178.65 1532.5,2184.5C 1534.14,2184.48 1535.48,2185.15 1536.5,2186.5C 1541.84,2194.83 1547.51,2202.83 1553.5,2210.5 Z M 1512.5,2184.5 C 1514.9,2186.3 1516.57,2188.63 1517.5,2191.5C 1514.94,2189.85 1513.27,2187.52 1512.5,2184.5 Z M 1517.5,2191.5 C 1518.29,2191.78 1518.96,2192.28 1519.5,2193C 1518.18,2193.53 1517.52,2193.03 1517.5,2191.5 Z M 1521.5,2197.5 C 1519.67,2196.86 1519.33,2195.86 1520.5,2194.5C 1521.39,2195.32 1521.72,2196.32 1521.5,2197.5 Z M 1521.5,2197.5 C 1526.25,2202.5 1530.92,2207.67 1535.5,2213C 1532.97,2213.03 1530.64,2212.2 1528.5,2210.5C 1525.71,2206.39 1523.38,2202.05 1521.5,2197.5 Z"/></g>
<g><path style="opacity:0.004" fill="#000000" d="M 725.5,2118.5 C 725.027,2119.91 724.027,2120.57 722.5,2120.5C 722.973,2119.09 723.973,2118.43 725.5,2118.5 Z"/></g>
<g><path style="opacity:0.004" fill="#fe0000" d="M 1492.5,2135.5 C 1495.01,2135.05 1497.01,2135.72 1498.5,2137.5C 1496.61,2136.46 1494.78,2136.46 1493,2137.5C 1492.54,2136.91 1492.37,2136.24 1492.5,2135.5 Z"/></g>
<g><path style="opacity:0.004" fill="#fe0000" d="M 1524.5,2148.5 C 1522.5,2147.17 1520.5,2147.17 1518.5,2148.5C 1520.5,2145.83 1522.5,2145.83 1524.5,2148.5 Z"/></g>
<g><path style="opacity:0.713" fill="#9E2b40" d="M 726.5,2213.5 C 721.99,2213.88 717.657,2214.55 713.5,2215.5C 697.816,2210.44 692.649,2200.1 698,2184.5C 709.697,2163.93 727.197,2152.6 750.5,2150.5C 756.054,2150.74 761.388,2151.91 766.5,2154C 772.609,2159.89 774.775,2167.06 773,2175.5C 764.29,2193.54 750.457,2206.04 731.5,2213C 729.866,2213.49 728.199,2213.66 726.5,2213.5 Z M 747.5,2166.5 C 751.64,2165.71 754.973,2166.88 757.5,2170C 748.564,2185.38 735.397,2194.88 718,2198.5C 714.086,2197.82 712.752,2195.48 714,2191.5C 721.64,2178.35 732.806,2170.02 747.5,2166.5 Z"/></g>
<g><path style="opacity:0.712" fill="#9E2b40" d="M 741.5,2237.5 C 742.66,2235.8 741.993,2235.13 739.5,2235.5C 737.097,2235.61 735.264,2234.61 734,2232.5C 733.259,2229.44 733.425,2226.44 734.5,2223.5C 751.2,2208.13 767.533,2192.47 783.5,2176.5C 784.689,2175.57 786.022,2175.24 787.5,2175.5C 787.238,2174.02 787.571,2172.69 788.5,2171.5C 792.333,2167 797,2163.67 802.5,2161.5C 806.948,2162.55 809.948,2165.22 811.5,2169.5C 810.132,2171.64 809.132,2173.97 808.5,2176.5C 796.167,2188.67 783.833,2200.83 771.5,2213C 768.437,2215.73 765.104,2218.06 761.5,2220C 760.809,2221.07 760.309,2222.23 760,2223.5C 756.167,2226 753,2229.17 750.5,2233C 747.714,2235.06 744.714,2236.56 741.5,2237.5 Z"/></g>
<g><path style="opacity:0.692" fill="#9E2b40" d="M 790.5,2223.5 C 780.176,2232.16 770.176,2241.16 760.5,2250.5C 758.265,2250.21 756.265,2250.54 754.5,2251.5C 748.196,2249.34 746.03,2245 748,2238.5C 755.446,2231.05 762.946,2223.55 770.5,2216C 771.793,2215.51 773.127,2215.34 774.5,2215.5C 774.238,2214.02 774.571,2212.69 775.5,2211.5C 786.623,2201.88 797.623,2192.05 808.5,2182C 820.422,2179.08 824.422,2183.25 820.5,2194.5C 811.729,2202.52 803.063,2210.69 794.5,2219C 793.552,2219.48 792.552,2219.65 791.5,2219.5C 791.567,2220.96 791.234,2222.29 790.5,2223.5 Z"/></g>
<g><path style="opacity:0.004" fill="#fe0000" d="M 1553.5,2210.5 C 1554.87,2213.01 1554.53,2215.35 1552.5,2217.5C 1552.99,2215.19 1553.33,2212.86 1553.5,2210.5 Z"/></g>
<g><path style="opacity:0.004" fill="#df0001" d="M 726.5,2213.5 C 726.082,2214.22 725.416,2214.72 724.5,2215C 720.848,2215.5 717.182,2215.67 713.5,2215.5C 717.657,2214.55 721.99,2213.88 726.5,2213.5 Z"/></g>
<g><path style="opacity:0.012" fill="#fffb47" d="M 805.5,2227.5 C 803.119,2226.58 800.786,2226.58 798.5,2227.5C 798.089,2226.74 797.923,2225.74 798,2224.5C 796.112,2226.92 794.112,2226.92 792,2224.5C 791.617,2225.06 791.117,2225.39 790.5,2225.5C 790.5,2224.83 790.5,2224.17 790.5,2223.5C 796.187,2222.17 801.187,2223.51 805.5,2227.5 Z"/></g>
<g><path style="opacity:0.004" fill="#fe00ff" d="M 819.5,2227.5 C 821.027,2227.43 822.027,2228.09 822.5,2229.5C 820.973,2229.57 819.973,2228.91 819.5,2227.5 Z"/></g>
<g><path style="opacity:0.752" fill="#9E2b40" d="M 805.5,2227.5 C 810.167,2227.5 814.833,2227.5 819.5,2227.5C 819.973,2228.91 820.973,2229.57 822.5,2229.5C 834.517,2229.52 839.85,2235.52 838.5,2247.5C 839.552,2247.35 840.552,2247.52 841.5,2248C 842.541,2251.36 844.541,2252.19 847.5,2250.5C 850.625,2251.48 853.958,2251.81 857.5,2251.5C 864.039,2251.87 870.039,2253.87 875.5,2257.5C 877.534,2260.91 880.034,2263.91 883,2266.5C 885.554,2272.34 884.72,2277.51 880.5,2282C 872.389,2283.11 867.723,2279.61 866.5,2271.5C 855.95,2265.41 846.117,2266.41 837,2274.5C 834.783,2277.88 833.283,2281.55 832.5,2285.5C 832.77,2288.36 833.604,2291.03 835,2293.5C 837.167,2295 839.333,2296.5 841.5,2298C 848.191,2298.17 854.858,2298.67 861.5,2299.5C 866.923,2304.6 866.59,2309.43 860.5,2314C 841.433,2319.62 826.933,2314.12 817,2297.5C 813.109,2288.59 813.943,2280.26 819.5,2272.5C 817.47,2270.39 815.303,2268.39 813,2266.5C 812.464,2264.43 812.964,2262.6 814.5,2261C 805.562,2260.32 797.396,2257.49 790,2252.5C 787.62,2254.04 785.786,2256.04 784.5,2258.5C 785.167,2261.17 786.833,2262.83 789.5,2263.5C 791.382,2264.75 793.382,2265.92 795.5,2267C 800.167,2267.33 804.833,2267.67 809.5,2268C 816.326,2273.07 815.993,2277.74 808.5,2282C 804.118,2284.27 799.451,2284.93 794.5,2284C 788.325,2282.58 782.325,2280.58 776.5,2278C 775.369,2274.63 773.202,2272.13 770,2270.5C 769.156,2267.57 767.822,2264.9 766,2262.5C 765.182,2259.77 765.348,2257.11 766.5,2254.5C 767.894,2252.28 769.06,2249.94 770,2247.5C 775.037,2242.13 779.703,2236.46 784,2230.5C 786.328,2229 788.495,2227.33 790.5,2225.5C 791.117,2225.39 791.617,2225.06 792,2224.5C 794.112,2226.92 796.112,2226.92 798,2224.5C 797.923,2225.74 798.089,2226.74 798.5,2227.5C 800.786,2226.58 803.119,2226.58 805.5,2227.5 Z"/></g>
<g><path style="opacity:0.004" fill="#1c1c1c" d="M 739.5,2235.5 C 741.993,2235.13 742.66,2235.8 741.5,2237.5C 740.5,2237.17 739.833,2236.5 739.5,2235.5 Z"/></g>
<g><path style="opacity:0.004" fill="#000000" d="M 1420.5,2246.5 C 1418.44,2246.52 1416.44,2246.85 1414.5,2247.5C 1415.13,2246.05 1416.3,2245.39 1418,2245.5C 1419.07,2245.53 1419.9,2245.86 1420.5,2246.5 Z"/></g>
<g><path style="opacity:0.005" fill="#fe0000" d="M 754.5,2251.5 C 756.265,2250.54 758.265,2250.21 760.5,2250.5C 758.792,2252.51 756.792,2252.85 754.5,2251.5 Z"/></g>
<g><path style="opacity:0.004" fill="#d71305" d="M 857.5,2251.5 C 853.958,2251.81 850.625,2251.48 847.5,2250.5C 849.262,2250.64 850.929,2250.31 852.5,2249.5C 854.336,2250.03 856.003,2250.69 857.5,2251.5 Z"/></g>
<g><path style="opacity:0.728" fill="#9E2b40" d="M 918.5,2253.5 C 926.274,2251.54 930.94,2254.38 932.5,2262C 927.484,2269.71 922.484,2277.38 917.5,2285C 919.136,2287.31 920.803,2289.64 922.5,2292C 920.862,2300.13 916.029,2302.97 908,2300.5C 906.289,2300.44 904.956,2301.11 904,2302.5C 899.803,2309.71 894.803,2316.37 889,2322.5C 885.827,2326.83 883.327,2331.5 881.5,2336.5C 880.167,2336.5 878.833,2336.5 877.5,2336.5C 877.917,2342.58 875.084,2345.58 869,2345.5C 860.598,2343.32 858.598,2338.32 863,2330.5C 870.075,2319.43 877.909,2308.93 886.5,2299C 874.34,2292.8 874.507,2286.97 887,2281.5C 890.386,2282.09 893.72,2282.75 897,2283.5C 902.674,2278.66 906.674,2272.66 909,2265.5C 912.416,2261.65 915.583,2257.65 918.5,2253.5 Z"/></g>
<g><path style="opacity:0.004" fill="#fe0000" d="M 784.5,2258.5 C 786.5,2259.83 788.167,2261.5 789.5,2263.5C 786.833,2262.83 785.167,2261.17 784.5,2258.5 Z"/></g>
<g><path style="opacity:0.624" fill="#9E2b40" d="M 953.5,2287.5 C 947.293,2293.16 941.459,2292.83 936,2286.5C 933.847,2278.83 936.68,2274.5 944.5,2273.5C 947.721,2274 950.721,2275 953.5,2276.5C 954.657,2280.22 954.657,2283.88 953.5,2287.5 Z"/></g>
<g><path style="opacity:0.722" fill="#9E2b40" d="M 1284.5,2311.5 C 1286.9,2311.45 1289.24,2311.78 1291.5,2312.5C 1297.63,2317.41 1301.8,2323.74 1304,2331.5C 1307.69,2334.89 1310.35,2338.89 1312,2343.5C 1315.56,2329.01 1319.22,2314.68 1323,2300.5C 1325.07,2298.63 1327.4,2297.3 1330,2296.5C 1332.27,2297.86 1334.77,2298.53 1337.5,2298.5C 1338.15,2300.83 1338.82,2303.16 1339.5,2305.5C 1337.88,2310.13 1336.71,2314.8 1336,2319.5C 1338.11,2316.75 1340.95,2315.42 1344.5,2315.5C 1345.26,2309.51 1346.1,2303.51 1347,2297.5C 1350.36,2292.79 1353.19,2287.79 1355.5,2282.5C 1362.18,2276.91 1369.85,2275.08 1378.5,2277C 1380.59,2278.04 1382.25,2279.54 1383.5,2281.5C 1384.23,2285.25 1385.23,2288.92 1386.5,2292.5C 1384.56,2306.04 1378.23,2317.04 1367.5,2325.5C 1366.15,2326.95 1364.48,2327.62 1362.5,2327.5C 1362.48,2329.14 1363.15,2330.48 1364.5,2331.5C 1367.45,2332.65 1370.45,2332.82 1373.5,2332C 1377,2329.42 1380.66,2327.08 1384.5,2325C 1387.73,2322.43 1390.23,2319.27 1392,2315.5C 1393.43,2313.56 1395.27,2312.23 1397.5,2311.5C 1399.56,2311.52 1401.56,2311.85 1403.5,2312.5C 1404.49,2312.67 1405.16,2312.34 1405.5,2311.5C 1405.57,2309.97 1404.91,2308.97 1403.5,2308.5C 1397.11,2296.02 1390.27,2283.69 1383,2271.5C 1380.82,2264.52 1383.32,2260.52 1390.5,2259.5C 1392.84,2259.66 1394.67,2260.66 1396,2262.5C 1399.45,2258.05 1403.28,2253.88 1407.5,2250C 1409.44,2248.1 1411.77,2247.26 1414.5,2247.5C 1416.44,2246.85 1418.44,2246.52 1420.5,2246.5C 1424.14,2246.77 1426.97,2248.44 1429,2251.5C 1432.2,2256.79 1435.2,2262.12 1438,2267.5C 1436.58,2258.68 1436.24,2249.68 1437,2240.5C 1438.76,2234.31 1441.6,2228.64 1445.5,2223.5C 1452.14,2222.34 1458.81,2222.17 1465.5,2223C 1468.68,2225.84 1471.51,2229.01 1474,2232.5C 1475.94,2240.63 1479.94,2247.63 1486,2253.5C 1490.87,2250.54 1495.2,2251.21 1499,2255.5C 1499.67,2258.17 1499.67,2260.83 1499,2263.5C 1497.28,2265.87 1495.78,2268.37 1494.5,2271C 1489.19,2271.34 1484.02,2271.51 1479,2271.5C 1477.99,2286 1470.16,2293 1455.5,2292.5C 1451.59,2302.61 1444.92,2305.11 1435.5,2300C 1428.98,2292.29 1424.65,2283.46 1422.5,2273.5C 1420.19,2270.88 1418.85,2267.88 1418.5,2264.5C 1416.61,2264.3 1415.11,2264.96 1414,2266.5C 1410.91,2270.1 1408.41,2274.1 1406.5,2278.5C 1410.36,2286.53 1414.86,2294.2 1420,2301.5C 1421.36,2305.71 1422.86,2309.88 1424.5,2314C 1423.92,2318.91 1421.09,2321.41 1416,2321.5C 1412.82,2321.46 1410.49,2320.12 1409,2317.5C 1407.15,2322.84 1404.65,2327.84 1401.5,2332.5C 1392.86,2341.71 1382.36,2347.38 1370,2349.5C 1361.04,2349.22 1353.37,2345.89 1347,2339.5C 1346.77,2337.22 1345.93,2335.22 1344.5,2333.5C 1341.53,2331.69 1338.69,2329.69 1336,2327.5C 1335.67,2325.5 1335.33,2323.5 1335,2321.5C 1330.74,2338.6 1326.24,2355.6 1321.5,2372.5C 1317.2,2373.54 1312.87,2373.54 1308.5,2372.5C 1301,2358.16 1292.84,2344.16 1284,2330.5C 1282.67,2327.17 1281.33,2323.83 1280,2320.5C 1279.05,2316.28 1280.55,2313.28 1284.5,2311.5 Z M 1438.5,2268.5 C 1440.48,2269.43 1440.81,2270.76 1439.5,2272.5C 1438.57,2271.31 1438.24,2269.98 1438.5,2268.5 Z M 1454.5,2239.5 C 1457.34,2242.6 1460.01,2245.94 1462.5,2249.5C 1463.66,2257.15 1463.83,2264.81 1463,2272.5C 1462.33,2273.17 1461.67,2273.83 1461,2274.5C 1459.23,2273.18 1457.9,2271.52 1457,2269.5C 1455.46,2265.56 1454.12,2261.56 1453,2257.5C 1452.33,2253.17 1452.33,2248.83 1453,2244.5C 1454.27,2243.1 1454.77,2241.43 1454.5,2239.5 Z M 1442.5,2278.5 C 1444.45,2279.66 1445.28,2281.33 1445,2283.5C 1443.12,2282.35 1442.28,2280.68 1442.5,2278.5 Z M 1368.5,2294.5 C 1369.12,2294.92 1369.46,2295.58 1369.5,2296.5C 1368.21,2298.16 1366.88,2299.83 1365.5,2301.5C 1365.17,2301.17 1364.83,2300.83 1364.5,2300.5C 1365.84,2298.47 1367.18,2296.47 1368.5,2294.5 Z M 1403.5,2310.5 C 1404.17,2310.83 1404.83,2311.17 1405.5,2311.5C 1405.16,2312.34 1404.49,2312.67 1403.5,2312.5C 1403.5,2311.83 1403.5,2311.17 1403.5,2310.5 Z"/></g>
<g><path style="opacity:0.706" fill="#9E2b40" d="M 953.5,2287.5 C 956.877,2286.3 959.543,2284.13 961.5,2281C 964.832,2280.75 967.999,2279.92 971,2278.5C 974.001,2279.92 977.168,2280.75 980.5,2281C 986.652,2284.76 989.652,2290.26 989.5,2297.5C 989.442,2301.7 988.608,2305.7 987,2309.5C 983.702,2314.22 979.202,2315.72 973.5,2314C 970.721,2312.54 969.387,2310.21 969.5,2307C 969.499,2303.67 970.499,2300.67 972.5,2298C 972.167,2297.5 971.833,2297 971.5,2296.5C 969.391,2297.65 967.391,2298.98 965.5,2300.5C 962.093,2305.88 958.76,2311.21 955.5,2316.5C 960.194,2315.9 964.528,2316.73 968.5,2319C 972.153,2322.45 972.486,2326.28 969.5,2330.5C 967.525,2332.32 965.191,2333.32 962.5,2333.5C 957.158,2332.32 951.825,2332.32 946.5,2333.5C 940.451,2344.93 934.951,2356.6 930,2368.5C 926.842,2374.4 922.009,2376.07 915.5,2373.5C 914.32,2371.55 913.654,2369.38 913.5,2367C 913.775,2359.73 916.441,2353.56 921.5,2348.5C 922.652,2345.89 922.818,2343.23 922,2340.5C 918.449,2347.41 913.949,2353.58 908.5,2359C 901.34,2361.32 897.673,2358.82 897.5,2351.5C 897.488,2347.85 898.488,2344.52 900.5,2341.5C 903.88,2338.68 906.046,2335.01 907,2330.5C 909.667,2327.17 912.333,2323.83 915,2320.5C 918.057,2315.42 920.723,2310.09 923,2304.5C 929.346,2298.88 935.346,2299.22 941,2305.5C 944.966,2299.37 949.133,2293.37 953.5,2287.5 Z"/></g>
<g><path style="opacity:0.711" fill="#9E2b40" d="M 1069.5,2299.5 C 1075,2299 1078.66,2301.34 1080.5,2306.5C 1072.14,2330.6 1065.81,2355.1 1061.5,2380C 1061.83,2381.5 1062.17,2383 1062.5,2384.5C 1070.06,2379.23 1075.06,2381.06 1077.5,2390C 1075.47,2397.74 1070.47,2401.58 1062.5,2401.5C 1058.68,2401.27 1055.01,2400.43 1051.5,2399C 1049.44,2396.38 1047.77,2393.54 1046.5,2390.5C 1037.78,2398.17 1028.11,2399.51 1017.5,2394.5C 1013.43,2391.6 1010.26,2387.93 1008,2383.5C 1006.71,2363.65 1013.88,2347.48 1029.5,2335C 1031.38,2334.78 1033.05,2334.12 1034.5,2333C 1041.19,2332.83 1047.86,2332.33 1054.5,2331.5C 1058.69,2322.45 1061.86,2313.12 1064,2303.5C 1065.5,2301.53 1067.33,2300.2 1069.5,2299.5 Z M 1042.5,2347.5 C 1044.5,2347.5 1046.5,2347.5 1048.5,2347.5C 1049.45,2360.45 1044.78,2370.95 1034.5,2379C 1032.64,2379.42 1030.81,2379.92 1029,2380.5C 1027.11,2380.22 1025.78,2379.22 1025,2377.5C 1024.91,2368.28 1028.08,2360.28 1034.5,2353.5C 1037.39,2351.67 1040.05,2349.67 1042.5,2347.5 Z"/></g>
<g><path style="opacity:0.004" fill="#000000" d="M 1403.5,2308.5 C 1404.91,2308.97 1405.57,2309.97 1405.5,2311.5C 1404.83,2311.17 1404.17,2310.83 1403.5,2310.5C 1403.5,2309.83 1403.5,2309.17 1403.5,2308.5 Z"/></g>
<g><path style="opacity:0.005" fill="#fe0000" d="M 1284.5,2311.5 C 1285.27,2310.85 1286.27,2310.52 1287.5,2310.5C 1289.35,2310.34 1290.69,2311.01 1291.5,2312.5C 1289.24,2311.78 1286.9,2311.45 1284.5,2311.5 Z"/></g>
<g><path style="opacity:0.004" fill="#9E2b40" d="M 1397.5,2311.5 C 1399.26,2310.54 1401.26,2310.21 1403.5,2310.5C 1403.5,2311.17 1403.5,2311.83 1403.5,2312.5C 1401.56,2311.85 1399.56,2311.52 1397.5,2311.5 Z"/></g>
<g><path style="opacity:0.004" fill="#fe0000" d="M 1081.5,2316.5 C 1083.53,2316.34 1085.53,2316.5 1087.5,2317C 1088.06,2317.38 1088.39,2317.88 1088.5,2318.5C 1085.99,2318.07 1083.66,2317.41 1081.5,2316.5 Z"/></g>
<g><path style="opacity:0.583" fill="#9E2b40" d="M 1081.5,2316.5 C 1083.66,2317.41 1085.99,2318.07 1088.5,2318.5C 1090.15,2320.56 1091.65,2322.89 1093,2325.5C 1093.47,2324.07 1094.3,2322.9 1095.5,2322C 1098.83,2321.33 1102.17,2321.33 1105.5,2322C 1108.35,2326.54 1108.02,2330.7 1104.5,2334.5C 1101.83,2335.83 1099.17,2335.83 1096.5,2334.5C 1094.58,2333.88 1093.42,2332.55 1093,2330.5C 1091.19,2334.92 1090.19,2339.59 1090,2344.5C 1087.34,2350.52 1082.84,2353.02 1076.5,2352C 1073.55,2349.97 1071.88,2347.14 1071.5,2343.5C 1072.66,2339 1074.32,2334.66 1076.5,2330.5C 1077.33,2326.88 1077.83,2323.21 1078,2319.5C 1079.04,2318.29 1080.21,2317.29 1081.5,2316.5 Z"/></g>
<g><path style="opacity:0.714" fill="#9E2b40" d="M 1252.5,2346.5 C 1252.57,2344.97 1251.91,2343.97 1250.5,2343.5C 1249.06,2338.44 1248.06,2333.27 1247.5,2328C 1247.17,2319.68 1251.17,2316.34 1259.5,2318C 1261.02,2319.35 1262.35,2320.85 1263.5,2322.5C 1267.83,2323.17 1272.17,2323.83 1276.5,2324.5C 1280.86,2327.72 1281.69,2331.72 1279,2336.5C 1276.09,2338.03 1272.93,2339.03 1269.5,2339.5C 1268.59,2340.33 1267.92,2341.33 1267.5,2342.5C 1269.88,2348.03 1270.88,2353.86 1270.5,2360C 1272.53,2370.96 1268.2,2375.63 1257.5,2374C 1255.5,2372.58 1254,2370.74 1253,2368.5C 1252.5,2361.17 1252.33,2353.84 1252.5,2346.5 Z"/></g>
<g><path style="opacity:0.712" fill="#9E2b40" d="M 1171.5,2303.5 C 1173.2,2303.34 1174.87,2303.51 1176.5,2304C 1178.94,2304.8 1180.78,2306.3 1182,2308.5C 1182.5,2316.49 1182.67,2324.49 1182.5,2332.5C 1187.87,2332.17 1193.21,2332.51 1198.5,2333.5C 1199.83,2335.31 1200.83,2337.31 1201.5,2339.5C 1206.94,2333.24 1213.78,2329.24 1222,2327.5C 1227.61,2329.28 1232.94,2331.61 1238,2334.5C 1239.83,2341.86 1239.67,2349.19 1237.5,2356.5C 1232.6,2362.23 1226.94,2367.06 1220.5,2371C 1221.59,2372.37 1222.93,2372.7 1224.5,2372C 1229.7,2369.47 1234.37,2366.14 1238.5,2362C 1245.96,2359.96 1249.96,2362.79 1250.5,2370.5C 1246.89,2379.15 1240.55,2384.82 1231.5,2387.5C 1225.85,2389.56 1220.18,2389.73 1214.5,2388C 1210.82,2385.16 1206.82,2382.82 1202.5,2381C 1200.03,2376.23 1196.53,2372.4 1192,2369.5C 1191.33,2366.5 1191.33,2363.5 1192,2360.5C 1192.64,2358.7 1193.8,2357.36 1195.5,2356.5C 1196.48,2353.57 1196.82,2350.57 1196.5,2347.5C 1191.16,2347.12 1186.16,2348.12 1181.5,2350.5C 1181.15,2368.32 1179.65,2385.98 1177,2403.5C 1176.43,2405.49 1175.26,2406.99 1173.5,2408C 1165.69,2409.98 1161.36,2407.14 1160.5,2399.5C 1161.54,2392.38 1162.71,2385.38 1164,2378.5C 1164.5,2369.84 1164.67,2361.17 1164.5,2352.5C 1157.49,2354.14 1153.49,2351.47 1152.5,2344.5C 1153.46,2339.35 1156.46,2336.52 1161.5,2336C 1163.49,2335.43 1164.99,2334.26 1166,2332.5C 1166.33,2324.83 1166.67,2317.17 1167,2309.5C 1167.64,2306.79 1169.14,2304.79 1171.5,2303.5 Z M 1214.5,2352.5 C 1215.83,2347.85 1218.83,2345.68 1223.5,2346C 1221.19,2349.15 1218.19,2351.32 1214.5,2352.5 Z"/></g>
<g><path style="opacity:0.004" fill="#fe0000" d="M 1096.5,2334.5 C 1099.17,2335.83 1101.83,2335.83 1104.5,2334.5C 1103.69,2335.99 1102.35,2336.66 1100.5,2336.5C 1098.65,2336.66 1097.31,2335.99 1096.5,2334.5 Z"/></g>
<g><path style="opacity:0.707" fill="#9E2b40" d="M 1133.5,2387.5 C 1135.01,2388.86 1135.68,2388.36 1135.5,2386C 1135.68,2383.64 1135.01,2383.14 1133.5,2384.5C 1133.5,2381.83 1133.5,2379.17 1133.5,2376.5C 1135.01,2377.86 1135.68,2377.36 1135.5,2375C 1135.68,2372.64 1135.01,2372.14 1133.5,2373.5C 1133.5,2367.17 1133.5,2360.83 1133.5,2354.5C 1132.13,2354.34 1130.79,2354.51 1129.5,2355C 1128.65,2357.36 1127.15,2359.2 1125,2360.5C 1124.83,2371.32 1123.5,2381.99 1121,2392.5C 1117.28,2395.9 1113.11,2396.4 1108.5,2394C 1107.08,2390.34 1106.08,2387.17 1105.5,2384.5C 1103.47,2386.65 1103.13,2388.99 1104.5,2391.5C 1102.96,2396.02 1100.96,2400.35 1098.5,2404.5C 1094.72,2405.82 1091.05,2405.48 1087.5,2403.5C 1086.34,2398.2 1086.17,2392.86 1087,2387.5C 1089.22,2375.37 1090.55,2363.03 1091,2350.5C 1094.36,2342.87 1099.36,2341.54 1106,2346.5C 1106.33,2355.17 1106.67,2363.83 1107,2372.5C 1108.27,2361.57 1108.93,2350.57 1109,2339.5C 1111.95,2333.63 1116.45,2332.13 1122.5,2335C 1123.89,2336.17 1124.73,2337.67 1125,2339.5C 1125.83,2338.67 1126.67,2337.83 1127.5,2337C 1131.49,2336.5 1135.49,2336.33 1139.5,2336.5C 1139.5,2337.5 1139.5,2338.5 1139.5,2339.5C 1141.14,2339.29 1142.64,2339.62 1144,2340.5C 1145.72,2342.9 1146.88,2345.56 1147.5,2348.5C 1147.95,2354.39 1149.12,2360.06 1151,2365.5C 1151.67,2374.5 1151.67,2383.5 1151,2392.5C 1149.44,2395.14 1147.94,2397.81 1146.5,2400.5C 1135.42,2403.11 1131.09,2398.77 1133.5,2387.5 Z"/></g>
<g><path style="opacity:0.004" fill="#000000" d="M 1250.5,2343.5 C 1251.91,2343.97 1252.57,2344.97 1252.5,2346.5C 1251.09,2346.03 1250.43,2345.03 1250.5,2343.5 Z"/></g>
<g><path style="opacity:0.008" fill="#9E2b40" d="M 1133.5,2376.5 C 1133.5,2375.5 1133.5,2374.5 1133.5,2373.5C 1135.01,2372.14 1135.68,2372.64 1135.5,2375C 1135.68,2377.36 1135.01,2377.86 1133.5,2376.5 Z"/></g>
<g><path style="opacity:0.004" fill="#fe0000" d="M 1106.5,2376.5 C 1107.1,2376.74 1107.43,2377.24 1107.5,2378C 1107,2379.5 1106.5,2381 1106,2382.5C 1105.32,2380.4 1105.49,2378.4 1106.5,2376.5 Z"/></g>
<g><path style="opacity:0.008" fill="#9E2b40" d="M 1133.5,2387.5 C 1133.5,2386.5 1133.5,2385.5 1133.5,2384.5C 1135.01,2383.14 1135.68,2383.64 1135.5,2386C 1135.68,2388.36 1135.01,2388.86 1133.5,2387.5 Z"/></g>
<g><path style="opacity:0.004" fill="#ee0000" d="M 1105.5,2384.5 C 1105.33,2386.86 1104.99,2389.19 1104.5,2391.5C 1103.13,2388.99 1103.47,2386.65 1105.5,2384.5 Z"/></g>
</svg>
